{
	"asset":{
		"generator":"Khronos glTF Blender I/O v5.0.21",
		"version":"2.0"
	},
	"extensionsUsed":[
		"KHR_materials_specular",
		"KHR_materials_ior"
	],
	"scene":0,
	"scenes":[
		{
			"name":"Scene",
			"nodes":[
				0,
				1,
				2,
				3,
				4
			]
		}
	],
	"nodes":[
		{
			"mesh":0,
			"name":"monitor"
		},
		{
			"mesh":1,
			"name":"led"
		},
		{
			"mesh":2,
			"name":"glass"
		},
		{
			"mesh":3,
			"name":"button"
		},
		{
			"mesh":4,
			"name":"base"
		}
	],
	"materials":[
		{
			"doubleSided":true,
			"name":"painted metal.002",
			"pbrMetallicRoughness":{
				"baseColorFactor":[
					0.6441270709037781,
					0.61846524477005,
					0.5217182040214539,
					1
				],
				"metallicFactor":0,
				"roughnessFactor":0.5292307734489441
			}
		},
		{
			"doubleSided":true,
			"extensions":{
				"KHR_materials_specular":{
					"specularFactor":0
				},
				"KHR_materials_ior":{
					"ior":1.4500000476837158
				}
			},
			"name":"black.002",
			"pbrMetallicRoughness":{
				"baseColorFactor":[
					0,
					0,
					0,
					1
				],
				"metallicFactor":0
			}
		},
		{
			"doubleSided":true,
			"emissiveFactor":[
				0.12535734474658966,
				0.3447665870189667,
				0.07971766591072083
			],
			"extensions":{
				"KHR_materials_specular":{
					"specularColorFactor":[
						2.0,
						2.0,
						2.0
					]
				},
				"KHR_materials_ior":{
					"ior":1.4500000476837158
				}
			},
			"name":"led.002",
			"pbrMetallicRoughness":{
				"baseColorFactor":[
					0.26293832063674927,
					0.8000000715255737,
					0.11087041348218918,
					1
				],
				"metallicFactor":0,
				"roughnessFactor":0
			}
		},
		{
			"doubleSided":true,
			"name":"glass"
		},
		{
			"doubleSided":true,
			"name":"grey plastic.002",
			"pbrMetallicRoughness":{
				"baseColorFactor":[
					0.3146648705005646,
					0.3146648705005646,
					0.3146648705005646,
					1
				],
				"metallicFactor":0,
				"roughnessFactor":0.38923078775405884
			}
		},
		{
			"doubleSided":true,
			"name":"dark grey.002",
			"pbrMetallicRoughness":{
				"baseColorFactor":[
					0.10860184580087662,
					0.10860184580087662,
					0.10860184580087662,
					1
				],
				"metallicFactor":0,
				"roughnessFactor":0.5953845977783203
			}
		}
	],
	"meshes":[
		{
			"name":"Cube.006",
			"primitives":[
				{
					"attributes":{
						"POSITION":0,
						"NORMAL":1,
						"TEXCOORD_0":2
					},
					"indices":3,
					"material":0
				},
				{
					"attributes":{
						"POSITION":4,
						"NORMAL":5,
						"TEXCOORD_0":6
					},
					"indices":7,
					"material":1
				}
			]
		},
		{
			"name":"Sphere.002",
			"primitives":[
				{
					"attributes":{
						"POSITION":8,
						"NORMAL":9,
						"TEXCOORD_0":10
					},
					"indices":11,
					"material":2
				},
				{
					"attributes":{
						"POSITION":12,
						"NORMAL":13,
						"TEXCOORD_0":14
					},
					"indices":15,
					"material":0
				}
			]
		},
		{
			"name":"Cube.007",
			"primitives":[
				{
					"attributes":{
						"POSITION":16,
						"NORMAL":17,
						"TEXCOORD_0":18
					},
					"indices":19,
					"material":3
				},
				{
					"attributes":{
						"POSITION":20,
						"NORMAL":21,
						"TEXCOORD_0":22
					},
					"indices":23,
					"material":1
				}
			]
		},
		{
			"name":"Cylinder.002",
			"primitives":[
				{
					"attributes":{
						"POSITION":24,
						"NORMAL":25,
						"TEXCOORD_0":26
					},
					"indices":27,
					"material":4
				},
				{
					"attributes":{
						"POSITION":28,
						"NORMAL":29,
						"TEXCOORD_0":30
					},
					"indices":31,
					"material":0
				},
				{
					"attributes":{
						"POSITION":32,
						"NORMAL":33,
						"TEXCOORD_0":34
					},
					"indices":35,
					"material":5
				}
			]
		},
		{
			"name":"Cube.008",
			"primitives":[
				{
					"attributes":{
						"POSITION":36,
						"NORMAL":37,
						"TEXCOORD_0":38
					},
					"indices":39,
					"material":0
				}
			]
		}
	],
	"accessors":[
		{
			"bufferView":0,
			"componentType":5126,
			"count":498,
			"max":[
				0.2344784140586853,
				0.5005480051040649,
				0.2353004366159439
			],
			"min":[
				-0.2309805154800415,
				0.03421996533870697,
				-0.23027729988098145
			],
			"type":"VEC3"
		},
		{
			"bufferView":1,
			"componentType":5126,
			"count":498,
			"type":"VEC3"
		},
		{
			"bufferView":2,
			"componentType":5126,
			"count":498,
			"type":"VEC2"
		},
		{
			"bufferView":3,
			"componentType":5123,
			"count":1116,
			"type":"SCALAR"
		},
		{
			"bufferView":4,
			"componentType":5126,
			"count":446,
			"max":[
				0.06866727769374847,
				0.319805383682251,
				-0.22957836091518402
			],
			"min":[
				-0.06483215093612671,
				0.20715928077697754,
				-0.23027729988098145
			],
			"type":"VEC3"
		},
		{
			"bufferView":5,
			"componentType":5126,
			"count":446,
			"type":"VEC3"
		},
		{
			"bufferView":6,
			"componentType":5126,
			"count":446,
			"type":"VEC2"
		},
		{
			"bufferView":7,
			"componentType":5123,
			"count":576,
			"type":"SCALAR"
		},
		{
			"bufferView":8,
			"componentType":5126,
			"count":11,
			"max":[
				0.14484718441963196,
				0.06817540526390076,
				0.2398470938205719
			],
			"min":[
				0.136795312166214,
				0.060177404433488846,
				0.2355404645204544
			],
			"type":"VEC3"
		},
		{
			"bufferView":9,
			"componentType":5126,
			"count":11,
			"type":"VEC3"
		},
		{
			"bufferView":10,
			"componentType":5126,
			"count":11,
			"type":"VEC2"
		},
		{
			"bufferView":11,
			"componentType":5123,
			"count":39,
			"type":"SCALAR"
		},
		{
			"bufferView":12,
			"componentType":5126,
			"count":13,
			"max":[
				0.14484718441963196,
				0.06817540526390076,
				0.2356707751750946
			],
			"min":[
				0.136795312166214,
				0.06005330756306648,
				0.23513463139533997
			],
			"type":"VEC3"
		},
		{
			"bufferView":13,
			"componentType":5126,
			"count":13,
			"type":"VEC3"
		},
		{
			"bufferView":14,
			"componentType":5126,
			"count":13,
			"type":"VEC2"
		},
		{
			"bufferView":15,
			"componentType":5123,
			"count":18,
			"type":"SCALAR"
		},
		{
			"bufferView":16,
			"componentType":5126,
			"count":65,
			"max":[
				0.17412808537483215,
				0.43996724486351013,
				0.22413969039916992
			],
			"min":[
				-0.17035380005836487,
				0.11584275960922241,
				0.1991349309682846
			],
			"type":"VEC3"
		},
		{
			"bufferView":17,
			"componentType":5126,
			"count":65,
			"type":"VEC3"
		},
		{
			"bufferView":18,
			"componentType":5126,
			"count":65,
			"type":"VEC2"
		},
		{
			"bufferView":19,
			"componentType":5123,
			"count":249,
			"type":"SCALAR"
		},
		{
			"bufferView":20,
			"componentType":5126,
			"count":66,
			"max":[
				0.17412808537483215,
				0.43996724486351013,
				0.21286919713020325
			],
			"min":[
				-0.17035380005836487,
				0.11584275960922241,
				0.1991349309682846
			],
			"type":"VEC3"
		},
		{
			"bufferView":21,
			"componentType":5126,
			"count":66,
			"type":"VEC3"
		},
		{
			"bufferView":22,
			"componentType":5126,
			"count":66,
			"type":"VEC2"
		},
		{
			"bufferView":23,
			"componentType":5123,
			"count":165,
			"type":"SCALAR"
		},
		{
			"bufferView":24,
			"componentType":5126,
			"count":152,
			"max":[
				0.17157618701457977,
				0.07517421990633011,
				0.23783238232135773
			],
			"min":[
				0.15151844918727875,
				0.055075503885746,
				0.2356187403202057
			],
			"type":"VEC3"
		},
		{
			"bufferView":25,
			"componentType":5126,
			"count":152,
			"type":"VEC3"
		},
		{
			"bufferView":26,
			"componentType":5126,
			"count":152,
			"type":"VEC2"
		},
		{
			"bufferView":27,
			"componentType":5123,
			"count":210,
			"type":"SCALAR"
		},
		{
			"bufferView":28,
			"componentType":5126,
			"count":115,
			"max":[
				0.17245957255363464,
				0.07615569978952408,
				0.23665618896484375
			],
			"min":[
				0.1506839245557785,
				0.054096877574920654,
				0.2343658208847046
			],
			"type":"VEC3"
		},
		{
			"bufferView":29,
			"componentType":5126,
			"count":115,
			"type":"VEC3"
		},
		{
			"bufferView":30,
			"componentType":5126,
			"count":115,
			"type":"VEC2"
		},
		{
			"bufferView":31,
			"componentType":5123,
			"count":153,
			"type":"SCALAR"
		},
		{
			"bufferView":32,
			"componentType":5126,
			"count":138,
			"max":[
				0.16751980781555176,
				0.07243712991476059,
				0.23783238232135773
			],
			"min":[
				0.1555931121110916,
				0.05912772938609123,
				0.23662127554416656
			],
			"type":"VEC3"
		},
		{
			"bufferView":33,
			"componentType":5126,
			"count":138,
			"type":"VEC3"
		},
		{
			"bufferView":34,
			"componentType":5126,
			"count":138,
			"type":"VEC2"
		},
		{
			"bufferView":35,
			"componentType":5123,
			"count":144,
			"type":"SCALAR"
		},
		{
			"bufferView":36,
			"componentType":5126,
			"count":242,
			"max":[
				0.16418078541755676,
				0.051190029829740524,
				0.15373729169368744
			],
			"min":[
				-0.15945109724998474,
				0.0004954421892762184,
				-0.16984878480434418
			],
			"type":"VEC3"
		},
		{
			"bufferView":37,
			"componentType":5126,
			"count":242,
			"type":"VEC3"
		},
		{
			"bufferView":38,
			"componentType":5126,
			"count":242,
			"type":"VEC2"
		},
		{
			"bufferView":39,
			"componentType":5123,
			"count":300,
			"type":"SCALAR"
		}
	],
	"bufferViews":[
		{
			"buffer":0,
			"byteLength":5976,
			"byteOffset":0,
			"target":34962
		},
		{
			"buffer":0,
			"byteLength":5976,
			"byteOffset":5976,
			"target":34962
		},
		{
			"buffer":0,
			"byteLength":3984,
			"byteOffset":11952,
			"target":34962
		},
		{
			"buffer":0,
			"byteLength":2232,
			"byteOffset":15936,
			"target":34963
		},
		{
			"buffer":0,
			"byteLength":5352,
			"byteOffset":18168,
			"target":34962
		},
		{
			"buffer":0,
			"byteLength":5352,
			"byteOffset":23520,
			"target":34962
		},
		{
			"buffer":0,
			"byteLength":3568,
			"byteOffset":28872,
			"target":34962
		},
		{
			"buffer":0,
			"byteLength":1152,
			"byteOffset":32440,
			"target":34963
		},
		{
			"buffer":0,
			"byteLength":132,
			"byteOffset":33592,
			"target":34962
		},
		{
			"buffer":0,
			"byteLength":132,
			"byteOffset":33724,
			"target":34962
		},
		{
			"buffer":0,
			"byteLength":88,
			"byteOffset":33856,
			"target":34962
		},
		{
			"buffer":0,
			"byteLength":78,
			"byteOffset":33944,
			"target":34963
		},
		{
			"buffer":0,
			"byteLength":156,
			"byteOffset":34024,
			"target":34962
		},
		{
			"buffer":0,
			"byteLength":156,
			"byteOffset":34180,
			"target":34962
		},
		{
			"buffer":0,
			"byteLength":104,
			"byteOffset":34336,
			"target":34962
		},
		{
			"buffer":0,
			"byteLength":36,
			"byteOffset":34440,
			"target":34963
		},
		{
			"buffer":0,
			"byteLength":780,
			"byteOffset":34476,
			"target":34962
		},
		{
			"buffer":0,
			"byteLength":780,
			"byteOffset":35256,
			"target":34962
		},
		{
			"buffer":0,
			"byteLength":520,
			"byteOffset":36036,
			"target":34962
		},
		{
			"buffer":0,
			"byteLength":498,
			"byteOffset":36556,
			"target":34963
		},
		{
			"buffer":0,
			"byteLength":792,
			"byteOffset":37056,
			"target":34962
		},
		{
			"buffer":0,
			"byteLength":792,
			"byteOffset":37848,
			"target":34962
		},
		{
			"buffer":0,
			"byteLength":528,
			"byteOffset":38640,
			"target":34962
		},
		{
			"buffer":0,
			"byteLength":330,
			"byteOffset":39168,
			"target":34963
		},
		{
			"buffer":0,
			"byteLength":1824,
			"byteOffset":39500,
			"target":34962
		},
		{
			"buffer":0,
			"byteLength":1824,
			"byteOffset":41324,
			"target":34962
		},
		{
			"buffer":0,
			"byteLength":1216,
			"byteOffset":43148,
			"target":34962
		},
		{
			"buffer":0,
			"byteLength":420,
			"byteOffset":44364,
			"target":34963
		},
		{
			"buffer":0,
			"byteLength":1380,
			"byteOffset":44784,
			"target":34962
		},
		{
			"buffer":0,
			"byteLength":1380,
			"byteOffset":46164,
			"target":34962
		},
		{
			"buffer":0,
			"byteLength":920,
			"byteOffset":47544,
			"target":34962
		},
		{
			"buffer":0,
			"byteLength":306,
			"byteOffset":48464,
			"target":34963
		},
		{
			"buffer":0,
			"byteLength":1656,
			"byteOffset":48772,
			"target":34962
		},
		{
			"buffer":0,
			"byteLength":1656,
			"byteOffset":50428,
			"target":34962
		},
		{
			"buffer":0,
			"byteLength":1104,
			"byteOffset":52084,
			"target":34962
		},
		{
			"buffer":0,
			"byteLength":288,
			"byteOffset":53188,
			"target":34963
		},
		{
			"buffer":0,
			"byteLength":2904,
			"byteOffset":53476,
			"target":34962
		},
		{
			"buffer":0,
			"byteLength":2904,
			"byteOffset":56380,
			"target":34962
		},
		{
			"buffer":0,
			"byteLength":1936,
			"byteOffset":59284,
			"target":34962
		},
		{
			"buffer":0,
			"byteLength":600,
			"byteOffset":61220,
			"target":34963
		}
	],
	"buffers":[
		{
			"byteLength":61820,
			"uri":"crt.bin"
		}
	]
}
