{
	"asset":{
		"generator":"Khronos glTF Blender I/O v5.0.21",
		"version":"2.0"
	},
	"scene":0,
	"scenes":[
		{
			"name":"Scene",
			"nodes":[
				8
			]
		}
	],
	"nodes":[
		{
			"mesh":0,
			"name":"Object_5"
		},
		{
			"children":[
				0
			],
			"name":"pCube1"
		},
		{
			"name":"pCylinder1"
		},
		{
			"mesh":1,
			"name":"Object_7"
		},
		{
			"children":[
				3
			],
			"name":"pSphere1"
		},
		{
			"children":[
				1,
				2,
				4
			],
			"name":"group1"
		},
		{
			"children":[
				5
			],
			"name":"RootNode"
		},
		{
			"children":[
				6
			],
			"name":"d3332a97a7ba407f89f38fab2a4b30e5.fbx"
		},
		{
			"children":[
				7
			],
			"name":"Sketchfab_model"
		}
	],
	"materials":[
		{
			"doubleSided":true,
			"name":"lambert2",
			"pbrMetallicRoughness":{
				"baseColorFactor":[
					0.7616000175476074,
					0.7616000175476074,
					0.7616000175476074,
					1
				],
				"metallicFactor":0,
				"roughnessFactor":0.6000000238418579
			}
		},
		{
			"doubleSided":true,
			"name":"lambert3",
			"pbrMetallicRoughness":{
				"baseColorFactor":[
					0.800000011920929,
					0.800000011920929,
					0.800000011920929,
					1
				],
				"metallicFactor":0,
				"roughnessFactor":0.6000000238418579
			}
		}
	],
	"meshes":[
		{
			"name":"Object_0",
			"primitives":[
				{
					"attributes":{
						"POSITION":0,
						"NORMAL":1,
						"TEXCOORD_0":2
					},
					"indices":3,
					"material":0
				}
			]
		},
		{
			"name":"Object_1",
			"primitives":[
				{
					"attributes":{
						"POSITION":4,
						"NORMAL":5,
						"TEXCOORD_0":6
					},
					"indices":7,
					"material":1
				}
			]
		}
	],
	"accessors":[
		{
			"bufferView":0,
			"componentType":5126,
			"count":676,
			"max":[
				0.03444938734173775,
				0.0470278225839138,
				0.06958574801683426
			],
			"min":[
				-0.035069990903139114,
				-0.0015866393223404884,
				-0.06853499263525009
			],
			"type":"VEC3"
		},
		{
			"bufferView":1,
			"componentType":5126,
			"count":676,
			"type":"VEC3"
		},
		{
			"bufferView":2,
			"componentType":5126,
			"count":676,
			"type":"VEC2"
		},
		{
			"bufferView":3,
			"componentType":5123,
			"count":1086,
			"type":"SCALAR"
		},
		{
			"bufferView":4,
			"componentType":5126,
			"count":35,
			"max":[
				0.00039996765553951263,
				0.029544077813625336,
				-0.03717782348394394
			],
			"min":[
				-0.002731828950345516,
				0.01150430552661419,
				-0.05412913113832474
			],
			"type":"VEC3"
		},
		{
			"bufferView":5,
			"componentType":5126,
			"count":35,
			"type":"VEC3"
		},
		{
			"bufferView":6,
			"componentType":5126,
			"count":35,
			"type":"VEC2"
		},
		{
			"bufferView":7,
			"componentType":5123,
			"count":150,
			"type":"SCALAR"
		}
	],
	"bufferViews":[
		{
			"buffer":0,
			"byteLength":8112,
			"byteOffset":0,
			"target":34962
		},
		{
			"buffer":0,
			"byteLength":8112,
			"byteOffset":8112,
			"target":34962
		},
		{
			"buffer":0,
			"byteLength":5408,
			"byteOffset":16224,
			"target":34962
		},
		{
			"buffer":0,
			"byteLength":2172,
			"byteOffset":21632,
			"target":34963
		},
		{
			"buffer":0,
			"byteLength":420,
			"byteOffset":23804,
			"target":34962
		},
		{
			"buffer":0,
			"byteLength":420,
			"byteOffset":24224,
			"target":34962
		},
		{
			"buffer":0,
			"byteLength":280,
			"byteOffset":24644,
			"target":34962
		},
		{
			"buffer":0,
			"byteLength":300,
			"byteOffset":24924,
			"target":34963
		}
	],
	"buffers":[
		{
			"byteLength":25224,
			"uri":"mouse.bin"
		}
	]
}
