{
	"asset":{
		"generator":"Khronos glTF Blender I/O v4.2.70",
		"version":"2.0"
	},
	"scene":0,
	"scenes":[
		{
			"name":"Scene",
			"nodes":[
				0,
				1,
				2
			]
		}
	],
	"nodes":[
		{
			"mesh":0,
			"name":"Cylinder",
			"translation":[
				-0.023789046332240105,
				0.19094529747962952,
				-0.09082040190696716
			]
		},
		{
			"mesh":1,
			"name":"Cylinder.001",
			"scale":[
				1.2919450998306274,
				1.2919450998306274,
				1.2919450998306274
			],
			"translation":[
				-0.009588420391082764,
				0.546647846698761,
				-0.0756881907582283
			]
		},
		{
			"mesh":2,
			"name":"Cylinder.002",
			"translation":[
				-0.0051032304763793945,
				0.22605419158935547,
				-0.09082040190696716
			]
		}
	],
	"materials":[
		{
			"doubleSided":true,
			"name":"Material.001",
			"pbrMetallicRoughness":{
				"baseColorTexture":{
					"index":0
				},
				"metallicFactor":0,
				"roughnessFactor":0.5
			}
		},
		{
			"doubleSided":true,
			"name":"Material.002",
			"pbrMetallicRoughness":{
				"baseColorTexture":{
					"index":0
				},
				"metallicFactor":0
			}
		},
		{
			"doubleSided":true,
			"name":"Material.003",
			"pbrMetallicRoughness":{
				"baseColorTexture":{
					"index":0
				},
				"metallicFactor":0,
				"roughnessFactor":0.699999988079071
			}
		}
	],
	"meshes":[
		{
			"name":"Cylinder",
			"primitives":[
				{
					"attributes":{
						"POSITION":0,
						"NORMAL":1,
						"TEXCOORD_0":2
					},
					"indices":3,
					"material":0
				}
			]
		},
		{
			"name":"Cylinder.001",
			"primitives":[
				{
					"attributes":{
						"POSITION":4,
						"NORMAL":5,
						"TEXCOORD_0":6
					},
					"indices":7,
					"material":1
				}
			]
		},
		{
			"name":"Cylinder.002",
			"primitives":[
				{
					"attributes":{
						"POSITION":8,
						"NORMAL":9,
						"TEXCOORD_0":10
					},
					"indices":11,
					"material":2
				}
			]
		}
	],
	"textures":[
		{
			"sampler":0,
			"source":0
		}
	],
	"images":[
		{
			"mimeType":"image/png",
			"name":"plant",
			"uri":"plant.png"
		}
	],
	"accessors":[
		{
			"bufferView":0,
			"componentType":5126,
			"count":293,
			"max":[
				0.3016938865184784,
				1.7628334760665894,
				0.39424774050712585
			],
			"min":[
				-0.3060610890388489,
				0.35594940185546875,
				-0.3072293698787689
			],
			"type":"VEC3"
		},
		{
			"bufferView":1,
			"componentType":5126,
			"count":293,
			"type":"VEC3"
		},
		{
			"bufferView":2,
			"componentType":5126,
			"count":293,
			"type":"VEC2"
		},
		{
			"bufferView":3,
			"componentType":5123,
			"count":588,
			"type":"SCALAR"
		},
		{
			"bufferView":4,
			"componentType":5126,
			"count":12,
			"max":[
				0.2393406331539154,
				0.006064474582672119,
				0.2393406331539154
			],
			"min":[
				-0.2393406331539154,
				0.006064474582672119,
				-0.2393406331539154
			],
			"type":"VEC3"
		},
		{
			"bufferView":5,
			"componentType":5126,
			"count":12,
			"type":"VEC3"
		},
		{
			"bufferView":6,
			"componentType":5126,
			"count":12,
			"type":"VEC2"
		},
		{
			"bufferView":7,
			"componentType":5123,
			"count":30,
			"type":"SCALAR"
		},
		{
			"bufferView":8,
			"componentType":5126,
			"count":138,
			"max":[
				0.34191223978996277,
				0.35594937205314636,
				0.34191223978996277
			],
			"min":[
				-0.34191223978996277,
				-0.22605419158935547,
				-0.34191223978996277
			],
			"type":"VEC3"
		},
		{
			"bufferView":9,
			"componentType":5126,
			"count":138,
			"type":"VEC3"
		},
		{
			"bufferView":10,
			"componentType":5126,
			"count":138,
			"type":"VEC2"
		},
		{
			"bufferView":11,
			"componentType":5123,
			"count":390,
			"type":"SCALAR"
		}
	],
	"bufferViews":[
		{
			"buffer":0,
			"byteLength":3516,
			"byteOffset":0,
			"target":34962
		},
		{
			"buffer":0,
			"byteLength":3516,
			"byteOffset":3516,
			"target":34962
		},
		{
			"buffer":0,
			"byteLength":2344,
			"byteOffset":7032,
			"target":34962
		},
		{
			"buffer":0,
			"byteLength":1176,
			"byteOffset":9376,
			"target":34963
		},
		{
			"buffer":0,
			"byteLength":144,
			"byteOffset":10552,
			"target":34962
		},
		{
			"buffer":0,
			"byteLength":144,
			"byteOffset":10696,
			"target":34962
		},
		{
			"buffer":0,
			"byteLength":96,
			"byteOffset":10840,
			"target":34962
		},
		{
			"buffer":0,
			"byteLength":60,
			"byteOffset":10936,
			"target":34963
		},
		{
			"buffer":0,
			"byteLength":1656,
			"byteOffset":10996,
			"target":34962
		},
		{
			"buffer":0,
			"byteLength":1656,
			"byteOffset":12652,
			"target":34962
		},
		{
			"buffer":0,
			"byteLength":1104,
			"byteOffset":14308,
			"target":34962
		},
		{
			"buffer":0,
			"byteLength":780,
			"byteOffset":15412,
			"target":34963
		}
	],
	"samplers":[
		{
			"magFilter":9729,
			"minFilter":9987
		}
	],
	"buffers":[
		{
			"byteLength":16192,
			"uri":"plant.bin"
		}
	]
}
