{
	"asset":{
		"generator":"Khronos glTF Blender I/O v4.2.70",
		"version":"2.0"
	},
	"scene":0,
	"scenes":[
		{
			"name":"Scene",
			"nodes":[
				0,
				1,
				2,
				3
			]
		}
	],
	"nodes":[
		{
			"mesh":0,
			"name":"Cylinder.001",
			"translation":[
				-0.006482637487351894,
				0.7193365693092346,
				-0.09745790809392929
			]
		},
		{
			"mesh":1,
			"name":"Cylinder",
			"rotation":[
				-0.06935488432645798,
				0.0035172728821635246,
				0.05052677541971207,
				0.9963054656982422
			],
			"translation":[
				-0.0184309184551239,
				1.5331611633300781,
				-0.11890798062086105
			]
		},
		{
			"mesh":2,
			"name":"Cylinder.002",
			"scale":[
				1.2919450998306274,
				1.2919450998306274,
				1.2919450998306274
			],
			"translation":[
				-0.009588420391082764,
				0.546647846698761,
				-0.0756881907582283
			]
		},
		{
			"mesh":3,
			"name":"Cylinder.003",
			"translation":[
				-0.0051032304763793945,
				0.22605419158935547,
				-0.09082040190696716
			]
		}
	],
	"materials":[
		{
			"doubleSided":true,
			"name":"Material",
			"pbrMetallicRoughness":{
				"baseColorTexture":{
					"index":0
				},
				"metallicFactor":0,
				"roughnessFactor":0.699999988079071
			}
		},
		{
			"doubleSided":true,
			"name":"Material.002",
			"pbrMetallicRoughness":{
				"baseColorTexture":{
					"index":1
				},
				"metallicFactor":0
			}
		},
		{
			"doubleSided":true,
			"name":"Material.003",
			"pbrMetallicRoughness":{
				"baseColorTexture":{
					"index":1
				},
				"metallicFactor":0,
				"roughnessFactor":0.699999988079071
			}
		}
	],
	"meshes":[
		{
			"name":"Cylinder.001",
			"primitives":[
				{
					"attributes":{
						"POSITION":0,
						"NORMAL":1,
						"TEXCOORD_0":2
					},
					"indices":3,
					"material":0
				}
			]
		},
		{
			"name":"Cylinder.002",
			"primitives":[
				{
					"attributes":{
						"POSITION":4,
						"NORMAL":5,
						"TEXCOORD_0":6
					},
					"indices":7,
					"material":0
				}
			]
		},
		{
			"name":"Cylinder.003",
			"primitives":[
				{
					"attributes":{
						"POSITION":8,
						"NORMAL":9,
						"TEXCOORD_0":10
					},
					"indices":11,
					"material":1
				}
			]
		},
		{
			"name":"Cylinder",
			"primitives":[
				{
					"attributes":{
						"POSITION":12,
						"NORMAL":13,
						"TEXCOORD_0":14
					},
					"indices":15,
					"material":2
				}
			]
		}
	],
	"textures":[
		{
			"sampler":0,
			"source":0
		},
		{
			"sampler":0,
			"source":1
		}
	],
	"images":[
		{
			"mimeType":"image/png",
			"name":"shroom",
			"uri":"shroom.png"
		},
		{
			"mimeType":"image/png",
			"name":"plant.png",
			"uri":"plant.png"
		}
	],
	"accessors":[
		{
			"bufferView":0,
			"componentType":5126,
			"count":36,
			"max":[
				0.1555785834789276,
				0.7218748927116394,
				0.15521995723247528
			],
			"min":[
				-0.14074093103408813,
				-0.16412872076034546,
				-0.14074093103408813
			],
			"type":"VEC3"
		},
		{
			"bufferView":1,
			"componentType":5126,
			"count":36,
			"type":"VEC3"
		},
		{
			"bufferView":2,
			"componentType":5126,
			"count":36,
			"type":"VEC2"
		},
		{
			"bufferView":3,
			"componentType":5123,
			"count":144,
			"type":"SCALAR"
		},
		{
			"bufferView":4,
			"componentType":5126,
			"count":33,
			"max":[
				0.26166296005249023,
				0.10234542936086655,
				0.2613966763019562
			],
			"min":[
				-0.25095507502555847,
				-0.13675329089164734,
				-0.24913284182548523
			],
			"type":"VEC3"
		},
		{
			"bufferView":5,
			"componentType":5126,
			"count":33,
			"type":"VEC3"
		},
		{
			"bufferView":6,
			"componentType":5126,
			"count":33,
			"type":"VEC2"
		},
		{
			"bufferView":7,
			"componentType":5123,
			"count":138,
			"type":"SCALAR"
		},
		{
			"bufferView":8,
			"componentType":5126,
			"count":12,
			"max":[
				0.2393406331539154,
				0.006064474582672119,
				0.2393406331539154
			],
			"min":[
				-0.2393406331539154,
				0.006064474582672119,
				-0.2393406331539154
			],
			"type":"VEC3"
		},
		{
			"bufferView":9,
			"componentType":5126,
			"count":12,
			"type":"VEC3"
		},
		{
			"bufferView":10,
			"componentType":5126,
			"count":12,
			"type":"VEC2"
		},
		{
			"bufferView":11,
			"componentType":5123,
			"count":30,
			"type":"SCALAR"
		},
		{
			"bufferView":12,
			"componentType":5126,
			"count":138,
			"max":[
				0.34191223978996277,
				0.35594937205314636,
				0.34191223978996277
			],
			"min":[
				-0.34191223978996277,
				-0.22605419158935547,
				-0.34191223978996277
			],
			"type":"VEC3"
		},
		{
			"bufferView":13,
			"componentType":5126,
			"count":138,
			"type":"VEC3"
		},
		{
			"bufferView":14,
			"componentType":5126,
			"count":138,
			"type":"VEC2"
		},
		{
			"bufferView":15,
			"componentType":5123,
			"count":390,
			"type":"SCALAR"
		}
	],
	"bufferViews":[
		{
			"buffer":0,
			"byteLength":432,
			"byteOffset":0,
			"target":34962
		},
		{
			"buffer":0,
			"byteLength":432,
			"byteOffset":432,
			"target":34962
		},
		{
			"buffer":0,
			"byteLength":288,
			"byteOffset":864,
			"target":34962
		},
		{
			"buffer":0,
			"byteLength":288,
			"byteOffset":1152,
			"target":34963
		},
		{
			"buffer":0,
			"byteLength":396,
			"byteOffset":1440,
			"target":34962
		},
		{
			"buffer":0,
			"byteLength":396,
			"byteOffset":1836,
			"target":34962
		},
		{
			"buffer":0,
			"byteLength":264,
			"byteOffset":2232,
			"target":34962
		},
		{
			"buffer":0,
			"byteLength":276,
			"byteOffset":2496,
			"target":34963
		},
		{
			"buffer":0,
			"byteLength":144,
			"byteOffset":2772,
			"target":34962
		},
		{
			"buffer":0,
			"byteLength":144,
			"byteOffset":2916,
			"target":34962
		},
		{
			"buffer":0,
			"byteLength":96,
			"byteOffset":3060,
			"target":34962
		},
		{
			"buffer":0,
			"byteLength":60,
			"byteOffset":3156,
			"target":34963
		},
		{
			"buffer":0,
			"byteLength":1656,
			"byteOffset":3216,
			"target":34962
		},
		{
			"buffer":0,
			"byteLength":1656,
			"byteOffset":4872,
			"target":34962
		},
		{
			"buffer":0,
			"byteLength":1104,
			"byteOffset":6528,
			"target":34962
		},
		{
			"buffer":0,
			"byteLength":780,
			"byteOffset":7632,
			"target":34963
		}
	],
	"samplers":[
		{
			"magFilter":9729,
			"minFilter":9987
		}
	],
	"buffers":[
		{
			"byteLength":8412,
			"uri":"shroom.bin"
		}
	]
}
