# Blender 5.0.1
# www.blender.org
o shroom
v -0.001047 0.165483 0.014107
v -0.022863 0.165483 0.023144
v -0.031899 0.165483 0.044959
v -0.022863 0.165483 0.066774
v -0.001047 0.165483 0.075811
v 0.020768 0.165483 0.066774
v 0.029804 0.165483 0.044959
v 0.020768 0.165483 0.023144
v -0.001047 0.169419 0.005038
v -0.029276 0.169419 0.016730
v -0.040969 0.169419 0.044959
v -0.029276 0.169419 0.073188
v -0.001047 0.169419 0.084880
v 0.027181 0.169419 0.073188
v 0.038874 0.169419 0.044959
v 0.027181 0.169419 0.016730
v -0.001047 0.162990 -0.015188
v -0.043578 0.162990 0.002428
v -0.061195 0.162990 0.044959
v -0.043578 0.162990 0.087490
v -0.001047 0.162990 0.105106
v 0.041483 0.162990 0.087490
v 0.059100 0.162990 0.044959
v 0.041483 0.162990 0.002428
v -0.001047 0.149233 -0.032349
v -0.055712 0.149233 -0.009706
v -0.078355 0.149233 0.044959
v -0.055712 0.149233 0.099624
v -0.001047 0.149233 0.122267
v 0.053617 0.149233 0.099624
v 0.076260 0.149233 0.044959
v 0.053617 0.149233 -0.009706
v 0.000504 0.000053 0.023191
v -0.005746 0.000053 0.029441
v -0.011996 0.000053 0.035691
v -0.005746 0.000053 0.048191
v 0.000504 0.000053 0.048191
v 0.006754 0.000053 0.048191
v 0.013004 0.000053 0.035691
v 0.006754 0.000053 0.029441
v 0.000275 0.035279 0.031038
v -0.006105 0.035279 0.033681
v -0.008748 0.035279 0.040061
v -0.006105 0.035279 0.046441
v 0.000275 0.035279 0.049084
v 0.006655 0.035279 0.046441
v 0.009298 0.035279 0.040061
v 0.006655 0.035279 0.033681
v -0.003540 0.079775 0.037523
v -0.008015 0.079775 0.039377
v -0.009869 0.079775 0.043851
v -0.008015 0.079775 0.048326
v -0.003540 0.079775 0.050180
v 0.000935 0.079775 0.048326
v 0.002788 0.079775 0.043851
v 0.000935 0.079775 0.039377
v -0.003141 0.120767 0.042924
v -0.006227 0.120767 0.044202
v -0.007505 0.120767 0.047288
v -0.006227 0.120767 0.050375
v -0.003141 0.120767 0.051653
v -0.000054 0.120767 0.050375
v 0.001224 0.120767 0.047288
v -0.000054 0.120767 0.044202
v -0.004821 0.151483 0.043884
v -0.007579 0.151483 0.045027
v -0.008721 0.151483 0.047785
v -0.007579 0.151483 0.050543
v -0.004821 0.151483 0.051685
v -0.002063 0.151483 0.050543
v -0.000920 0.151483 0.047785
v -0.002063 0.151483 0.045027
v -0.001047 0.164298 -0.040244
v -0.061295 0.164298 -0.015289
v -0.086250 0.164298 0.044959
v -0.061295 0.164298 0.105207
v -0.001047 0.164298 0.130162
v 0.059200 0.164298 0.105207
v 0.084156 0.164298 0.044959
v 0.059200 0.164298 -0.015289
v -0.002705 0.175661 -0.020815
v -0.051009 0.175661 -0.000807
v -0.071018 0.175661 0.047497
v -0.051009 0.175661 0.095801
v -0.002705 0.175661 0.115809
v 0.045599 0.175661 0.095801
v 0.065607 0.175661 0.047497
v 0.045599 0.175661 -0.000807
v -0.003865 0.184792 0.014711
v -0.027954 0.184792 0.024689
v -0.037932 0.184792 0.048778
v -0.027954 0.184792 0.072867
v -0.003865 0.184792 0.082845
v 0.020224 0.184792 0.072867
v 0.030202 0.184792 0.048778
v 0.020224 0.184792 0.024689
v -0.004278 0.186864 0.051749
vn 0.4156 -0.9095 0.0126
vn 0.2993 -0.9082 0.2925
vn 0.3046 -0.8900 0.3392
vn -0.0240 -0.8630 0.5046
vn -0.3185 -0.8923 0.3199
vn -0.3796 -0.8467 0.3729
vn -0.4449 -0.8956 -0.0039
vn -0.3535 -0.8803 -0.3163
vn -0.5186 -0.8548 0.0190
vn 0.2843 -0.9143 -0.2884
vn 0.4043 -0.9146 -0.0025
vn 0.0049 -0.8987 0.4385
vn -0.2972 -0.9049 -0.3046
vn -0.0177 -0.9040 -0.4273
vn 0.0035 -0.9128 -0.4084
vn 0.2815 -0.9173 -0.2815
vn 0.2837 -0.9162 -0.2830
vn 0.2815 -0.9173 0.2815
vn -0.3981 -0.9173 -0.0000
vn -0.0000 -0.9173 -0.3981
vn 0.3981 -0.9173 -0.0000
vn -0.2815 -0.9173 0.2815
vn -0.0000 -0.9530 -0.3029
vn 0.3578 -0.8625 -0.3578
vn 0.2142 -0.9530 -0.2142
vn 0.5060 -0.8625 -0.0000
vn 0.2142 -0.9530 0.2142
vn 0.3029 -0.9530 -0.0000
vn -0.2142 -0.9530 0.2142
vn -0.5060 -0.8625 -0.0000
vn -0.3029 -0.9530 -0.0000
vn -0.3578 -0.8625 -0.3578
vn -0.2142 -0.9530 -0.2142
vn -0.0000 -0.8625 0.5060
vn -0.0000 -0.9530 0.3029
vn -0.6255 -0.7802 -0.0000
vn -0.0000 -0.7802 -0.6255
vn -0.0000 -0.8625 -0.5060
vn 0.6255 -0.7802 -0.0000
vn 0.3578 -0.8625 0.3578
vn -0.4423 -0.7802 0.4423
vn -0.3578 -0.8625 0.3578
vn 0.4423 -0.7802 0.4423
vn -0.0000 -0.7802 0.6255
vn 0.4051 0.1422 -0.9031
vn 0.6850 0.1231 -0.7181
vn 0.6980 0.1600 -0.6980
vn 0.9188 0.0603 0.3901
vn 0.8978 0.0365 0.4390
vn 0.8938 0.0386 0.4469
vn 0.0204 -0.0077 0.9998
vn -0.0469 -0.0173 0.9987
vn 0.0236 0.0082 0.9997
vn -0.7364 0.0849 -0.6712
vn -0.6910 0.0946 -0.7166
vn -0.6856 0.1146 -0.7189
vn 0.6947 0.1550 -0.7024
vn 0.7358 0.0944 -0.6705
vn 0.3619 -0.0020 0.9322
vn -0.0000 0.0496 0.9988
vn -0.8981 0.0248 0.4391
vn -0.9204 -0.0188 0.3905
vn -0.8941 0.0270 0.4471
vn -0.4081 0.1083 -0.9065
vn -0.6990 0.1512 -0.6990
vn 0.9173 0.1191 -0.3800
vn 0.9128 0.1547 -0.3781
vn 0.3827 -0.0122 0.9238
vn -0.9236 -0.0228 0.3826
vn -0.9237 -0.0194 0.3826
vn -0.3803 0.1123 -0.9180
vn 0.3788 0.1416 -0.9146
vn 0.9224 0.0562 0.3821
vn 0.9221 0.0624 0.3819
vn -0.3823 -0.0427 0.9230
vn -0.3827 -0.0076 0.9239
vn -0.9218 0.0673 -0.3818
vn -0.9230 0.0445 -0.3823
vn 0.9235 0.0296 0.3825
vn 0.9227 0.0504 0.3822
vn -0.3826 -0.0257 0.9236
vn -0.3823 -0.0426 0.9230
vn -0.9228 0.0490 -0.3822
vn -0.9235 0.0298 -0.3825
vn 0.9217 0.0688 -0.3818
vn 0.9177 0.1151 -0.3801
vn 0.3827 -0.0094 0.9238
vn 0.3826 -0.0141 0.9238
vn -0.9238 -0.0163 0.3826
vn -0.9238 -0.0098 0.3827
vn -0.3802 0.1132 -0.9179
vn -0.3818 0.0683 -0.9217
vn 0.3813 0.0837 -0.9206
vn 0.3788 0.1415 -0.9146
vn -0.3819 0.0653 -0.9219
vn -0.3827 0.0080 -0.9239
vn 0.3822 0.0498 -0.9227
vn 0.3813 0.0838 -0.9206
vn 0.9223 0.0582 0.3820
vn 0.9234 0.0315 0.3825
vn -0.3826 -0.0219 0.9237
vn -0.9236 0.0258 -0.3826
vn -0.9235 -0.0304 -0.3825
vn 0.9216 0.0705 -0.3817
vn 0.9217 0.0689 -0.3818
vn 0.3826 0.0200 0.9237
vn 0.3827 -0.0080 0.9239
vn -0.9230 -0.0427 0.3823
vn -0.9238 -0.0113 0.3827
vn 0.8315 -0.4358 -0.3444
vn 0.3444 -0.4358 0.8315
vn -0.8315 -0.4358 0.3444
vn -0.3444 -0.4358 -0.8315
vn 0.3444 -0.4358 -0.8315
vn 0.8315 -0.4358 0.3444
vn -0.3444 -0.4358 0.8315
vn -0.8315 -0.4358 -0.3444
vn 0.0069 0.8634 -0.5044
vn 0.2871 0.9152 -0.2829
vn 0.3494 0.8680 -0.3529
vn 0.4220 0.9065 0.0126
vn 0.4148 0.8211 0.3922
vn 0.5212 0.8533 -0.0113
vn -0.0111 0.8710 0.4911
vn -0.4500 0.7748 0.4440
vn 0.0107 0.7846 0.6199
vn -0.5963 0.8027 -0.0150
vn -0.3218 0.8982 -0.2995
vn -0.3735 0.8399 -0.3938
vn 0.3117 0.8887 0.3363
vn -0.4769 0.8788 0.0161
vn -0.0076 0.9122 -0.4097
vn 0.1239 0.9845 -0.1240
vn 0.1295 0.9826 0.1332
vn -0.3498 0.8665 0.3562
vn -0.1897 0.9818 0.0020
vn -0.0018 0.9842 -0.1768
vn 0.1788 0.9839 0.0017
vn -0.0021 0.9814 0.1921
vn -0.1310 0.9832 -0.1273
vn -0.0008 1.0000 0.0059
vn -0.1370 0.9811 0.1369
vn -0.0000 -0.9173 0.3981
vn -0.2815 -0.9173 -0.2815
vn -0.4423 -0.7802 -0.4423
vn 0.4423 -0.7802 -0.4423
vt 0.759681 0.234238
vt 0.803037 0.142489
vt 0.769153 0.234317
vt 0.775850 0.241394
vt 0.856015 0.277006
vt 0.775850 0.251323
vt 0.803037 0.332099
vt 0.759681 0.258209
vt 0.769153 0.258289
vt 0.752983 0.241203
vt 0.728116 0.141863
vt 0.856015 0.198467
vt 0.728116 0.331473
vt 0.752983 0.251132
vt 0.675139 0.275494
vt 0.652495 0.184858
vt 0.675139 0.196955
vt 0.817993 0.114379
vt 0.817993 0.359731
vt 0.652495 0.286486
vt 0.721047 0.113569
vt 0.886545 0.288442
vt 0.886545 0.186814
vt 0.939394 0.315223
vt 0.836112 0.422630
vt 0.721047 0.358921
vt 0.690048 0.051751
vt 0.836112 0.052972
vt 0.586765 0.312275
vt 0.655430 -0.000000
vt 0.102912 0.719037
vt 0.147264 0.538471
vt 0.147264 0.690332
vt 0.843166 0.476692
vt 0.690048 0.421409
vt 0.522680 0.138051
vt 0.586765 0.159158
vt 0.975915 0.141839
vt 0.939394 0.162105
vt 0.655430 0.475123
vt 0.522680 0.334853
vt 0.728636 0.864347
vt 0.743813 0.982029
vt 0.715405 0.982029
vt 0.777563 0.864659
vt 0.818372 0.977806
vt 0.772222 0.982739
vt 0.540882 0.863130
vt 0.562830 0.979321
vt 0.542755 0.980121
vt 0.601736 0.978424
vt 0.631968 0.865304
vt 0.629044 0.982779
vt 0.751415 0.864588
vt 0.772221 0.982029
vt 0.522680 0.864674
vt 0.522680 0.980921
vt 0.577684 0.864459
vt 0.593740 0.981963
vt 0.648647 0.868485
vt 0.656351 0.987135
vt 0.745461 0.715857
vt 0.769647 0.864347
vt 0.537104 0.715990
vt 0.593740 0.860985
vt 0.616697 0.714096
vt 0.609225 0.862197
vt 0.644346 0.718506
vt 0.781452 0.716205
vt 0.800400 0.862138
vt 0.549870 0.714907
vt 0.563665 0.863041
vt 0.632648 0.716275
vt 0.779055 0.579433
vt 0.797470 0.714437
vt 0.556197 0.578685
vt 0.565850 0.714844
vt 0.639409 0.580395
vt 0.751608 0.579141
vt 0.758248 0.715688
vt 0.536371 0.579475
vt 0.605835 0.713246
vt 0.628407 0.578892
vt 0.647476 0.581934
vt 0.740589 0.579024
vt 0.729484 0.715688
vt 0.656351 0.479934
vt 0.747918 0.476796
vt 0.772221 0.477782
vt 0.790102 0.578213
vt 0.548945 0.476730
vt 0.545176 0.578728
vt 0.649141 0.478559
vt 0.755799 0.476692
vt 0.760427 0.579024
vt 0.541076 0.477398
vt 0.632615 0.476692
vt 0.620916 0.578306
vt 0.002273 0.696014
vt 0.049598 0.546952
vt 0.051660 0.703162
vt 0.877737 0.842511
vt 0.818372 0.691700
vt 0.870725 0.686153
vt 0.664802 1.000000
vt 0.707737 0.842564
vt 0.715405 0.975429
vt 0.707737 0.645889
vt 0.664802 0.476692
vt 0.715405 0.500613
vt 0.049598 0.898339
vt 0.102912 0.730553
vt 0.051660 0.523849
vt 0.102912 0.533691
vt 0.877737 0.491068
vt 0.656351 0.853566
vt 0.522680 0.370390
vt 0.458477 0.176740
vt 0.522680 0.153413
vt 0.335736 0.053740
vt 0.153089 0.000019
vt 0.369591 0.000000
vt 0.039413 0.176777
vt 0.000000 0.370437
vt 0.000000 0.153459
vt 0.153089 0.523849
vt 0.335736 0.473725
vt 0.369591 0.523830
vt 0.162154 0.053755
vt 0.162154 0.473741
vt 0.458477 0.350703
vt 0.346021 0.222245
vt 0.198246 0.160913
vt 0.039413 0.350741
vt 0.198246 0.370358
vt 0.346021 0.309000
vt 0.284811 0.160906
vt 0.137036 0.222264
vt 0.284811 0.370350
vt 0.231436 0.263111
vt 0.137036 0.309019
vt 0.843166 0.001569
vt 0.102912 0.523849
vt 0.975916 0.338641
vt 0.738071 0.476692
vt 0.782094 0.476692
vt 0.558794 0.476692
vt 0.639309 0.477216
vt 0.000000 0.523849
vt 0.826100 0.864027
vt 0.656351 0.636805
vt -0.000000 0.911124
vt 0.051660 0.740817
vt 0.826100 0.476692
s 1
f 71/1/1 6/2/2 70/3/3
f 69/4/4 4/5/5 68/6/6
f 3/7/7 66/8/8 67/9/9
f 72/10/10 7/11/11 71/1/1
f 70/3/3 5/12/12 69/4/4
f 4/5/5 67/9/9 68/6/6
f 2/13/13 65/14/14 66/8/8
f 1/15/15 72/10/10 65/14/14
f 16/16/16 7/11/11 8/17/17
f 14/18/18 5/12/12 6/2/2
f 4/5/5 11/19/19 3/7/7
f 2/13/13 9/20/20 1/15/15
f 9/20/20 8/17/17 1/15/15
f 15/21/21 6/2/2 7/11/11
f 5/12/12 12/22/22 4/5/5
f 11/19/19 2/13/13 3/7/7
f 13/23/23 20/24/24 12/22/25
f 19/25/26 10/26/27 11/19/28
f 16/16/29 23/27/30 15/21/31
f 22/28/32 13/23/23 14/18/33
f 20/24/24 11/19/28 12/22/25
f 10/26/27 17/29/34 9/20/35
f 17/29/34 16/16/29 9/20/35
f 15/21/31 22/28/32 14/18/33
f 31/30/36 22/28/32 23/27/30
f 29/31/37 20/32/24 21/33/38
f 27/34/39 18/35/40 19/25/26
f 32/36/41 23/27/30 24/37/42
f 22/28/32 29/38/37 21/39/38
f 20/24/24 27/34/39 19/25/26
f 26/40/43 17/29/34 18/35/40
f 25/41/44 24/37/42 17/29/34
f 41/42/45 40/43/46 33/44/47
f 47/45/48 38/46/49 39/47/50
f 45/48/51 36/49/52 37/50/53
f 35/51/54 42/52/55 34/53/56
f 48/54/57 39/55/58 40/43/46
f 46/56/59 37/50/53 38/57/60
f 36/49/61 43/58/62 35/59/63
f 34/53/56 41/60/64 33/61/65
f 56/62/66 47/63/67 48/54/57
f 54/64/68 45/48/51 46/56/59
f 44/65/69 51/66/70 43/67/62
f 42/52/55 49/68/71 41/60/64
f 41/42/45 56/62/72 48/54/57
f 55/69/73 46/70/74 47/45/48
f 53/71/75 44/72/76 45/48/51
f 43/67/77 50/73/78 42/52/55
f 63/74/79 54/75/80 55/69/73
f 53/71/75 60/76/81 52/77/82
f 51/66/83 58/78/84 50/73/78
f 64/79/85 55/80/86 56/62/66
f 62/81/87 53/71/88 54/64/68
f 52/82/89 59/83/90 51/66/70
f 50/73/91 57/84/92 49/68/71
f 57/85/93 56/62/72 49/86/94
f 58/78/95 65/87/96 57/84/92
f 57/85/93 72/88/97 64/79/98
f 71/89/99 62/90/100 63/74/79
f 69/91/101 60/76/81 61/92/81
f 59/83/102 66/93/103 58/78/84
f 64/79/85 71/94/104 63/95/105
f 70/96/106 61/92/107 62/81/87
f 68/97/108 59/83/90 60/98/109
f 80/99/110 31/100/110 32/101/110
f 30/102/111 77/103/111 29/104/111
f 76/105/112 27/106/112 28/107/112
f 26/108/113 73/109/113 25/110/113
f 25/111/114 80/99/114 32/101/114
f 31/112/115 78/113/115 30/114/115
f 77/103/116 28/115/116 29/104/116
f 75/116/117 26/108/117 27/106/117
f 73/117/118 88/118/119 80/119/120
f 87/120/121 78/121/122 79/122/123
f 85/123/124 76/124/125 77/125/126
f 75/126/127 82/127/128 74/128/129
f 88/118/119 79/122/123 80/119/120
f 86/129/130 77/125/126 78/121/122
f 76/124/125 83/130/131 75/126/127
f 74/128/129 81/131/132 73/117/118
f 96/132/133 87/120/121 88/118/119
f 94/133/134 85/123/124 86/129/130
f 84/134/135 91/135/136 83/130/131
f 82/127/128 89/136/137 81/131/132
f 81/131/132 96/132/133 88/118/119
f 95/137/138 86/129/130 87/120/121
f 93/138/139 84/134/135 85/123/124
f 83/130/131 90/139/140 82/127/128
f 90/139/140 97/140/141 89/136/137
f 89/136/137 97/140/141 96/132/133
f 95/137/138 97/140/141 94/133/134
f 93/138/139 97/140/141 92/141/142
f 91/135/136 97/140/141 90/139/140
f 96/132/133 97/140/141 95/137/138
f 94/133/134 97/140/141 93/138/139
f 92/141/142 97/140/141 91/135/136
f 71/1/1 7/11/11 6/2/2
f 69/4/4 5/12/12 4/5/5
f 3/7/7 2/13/13 66/8/8
f 72/10/10 8/17/17 7/11/11
f 70/3/3 6/2/2 5/12/12
f 4/5/5 3/7/7 67/9/9
f 2/13/13 1/15/15 65/14/14
f 1/15/15 8/17/17 72/10/10
f 16/16/16 15/21/21 7/11/11
f 14/18/18 13/23/143 5/12/12
f 4/5/5 12/22/22 11/19/19
f 2/13/13 10/26/144 9/20/20
f 9/20/20 16/16/16 8/17/17
f 15/21/21 14/18/18 6/2/2
f 5/12/12 13/23/143 12/22/22
f 11/19/19 10/26/144 2/13/13
f 13/23/23 21/39/38 20/24/24
f 19/25/26 18/35/40 10/26/27
f 16/16/29 24/37/42 23/27/30
f 22/28/32 21/39/38 13/23/23
f 20/24/24 19/25/26 11/19/28
f 10/26/27 18/35/40 17/29/34
f 17/29/34 24/37/42 16/16/29
f 15/21/31 23/27/30 22/28/32
f 31/30/36 30/142/145 22/28/32
f 29/31/37 28/143/146 20/32/24
f 27/34/39 26/40/43 18/35/40
f 32/36/41 31/30/36 23/27/30
f 22/28/32 30/142/145 29/38/37
f 20/24/24 28/144/146 27/34/39
f 26/40/43 25/41/44 17/29/34
f 25/41/44 32/36/41 24/37/42
f 41/42/45 48/54/57 40/43/46
f 47/45/48 46/70/74 38/46/49
f 45/48/51 44/72/76 36/49/52
f 35/51/54 43/67/77 42/52/55
f 48/54/57 47/63/67 39/55/58
f 46/56/59 45/48/51 37/50/53
f 36/49/61 44/72/69 43/58/62
f 34/53/56 42/52/55 41/60/64
f 56/62/66 55/80/86 47/63/67
f 54/64/68 53/71/88 45/48/51
f 44/65/69 52/82/89 51/66/70
f 42/52/55 50/73/91 49/68/71
f 41/42/45 49/86/94 56/62/72
f 55/69/73 54/75/80 46/70/74
f 53/71/75 52/77/82 44/72/76
f 43/67/77 51/66/83 50/73/78
f 63/74/79 62/90/100 54/75/80
f 53/71/75 61/92/81 60/76/81
f 51/66/83 59/83/102 58/78/84
f 64/79/85 63/95/105 55/80/86
f 62/81/87 61/92/107 53/71/88
f 52/82/89 60/98/109 59/83/90
f 50/73/91 58/78/95 57/84/92
f 57/85/93 64/79/98 56/62/72
f 58/78/95 66/93/96 65/87/96
f 57/85/93 65/145/97 72/88/97
f 71/89/99 70/146/99 62/90/100
f 69/91/101 68/147/101 60/76/81
f 59/83/102 67/148/103 66/93/103
f 64/79/85 72/88/104 71/94/104
f 70/96/106 69/91/106 61/92/107
f 68/97/108 67/148/108 59/83/90
f 80/99/110 79/149/110 31/100/110
f 30/102/111 78/150/111 77/103/111
f 76/105/112 75/116/112 27/106/112
f 26/108/113 74/151/113 73/109/113
f 25/111/114 73/152/114 80/99/114
f 31/112/115 79/153/115 78/113/115
f 77/103/116 76/154/116 28/115/116
f 75/116/117 74/151/117 26/108/117
f 73/117/118 81/131/132 88/118/119
f 87/120/121 86/129/130 78/121/122
f 85/123/124 84/134/135 76/124/125
f 75/126/127 83/130/131 82/127/128
f 88/118/119 87/120/121 79/122/123
f 86/129/130 85/123/124 77/125/126
f 76/124/125 84/134/135 83/130/131
f 74/128/129 82/127/128 81/131/132
f 96/132/133 95/137/138 87/120/121
f 94/133/134 93/138/139 85/123/124
f 84/134/135 92/141/142 91/135/136
f 82/127/128 90/139/140 89/136/137
f 81/131/132 89/136/137 96/132/133
f 95/137/138 94/133/134 86/129/130
f 93/138/139 92/141/142 84/134/135
f 83/130/131 91/135/136 90/139/140
