{
	"asset":{
		"generator":"Khronos glTF Blender I/O v5.0.21",
		"version":"2.0"
	},
	"extensionsUsed":[
		"KHR_texture_transform"
	],
	"extensionsRequired":[
		"KHR_texture_transform"
	],
	"scene":0,
	"scenes":[
		{
			"name":"Scene",
			"nodes":[
				0
			]
		}
	],
	"nodes":[
		{
			"mesh":0,
			"name":"Plane"
		}
	],
	"materials":[
		{
			"doubleSided":true,
			"name":"ArmorPaintMtl",
			"pbrMetallicRoughness":{
				"baseColorTexture":{
					"extensions":{
						"KHR_texture_transform":{
							"offset":[
								8.742278000372475e-08,
								1.9999999999999962
							],
							"rotation":3.1415927410125732
						}
					},
					"index":0
				},
				"metallicFactor":0,
				"roughnessFactor":0.949999988079071
			}
		}
	],
	"meshes":[
		{
			"name":"Plane",
			"primitives":[
				{
					"attributes":{
						"POSITION":0,
						"NORMAL":1,
						"TEXCOORD_0":2
					},
					"indices":3,
					"material":0
				}
			]
		}
	],
	"textures":[
		{
			"sampler":0,
			"source":0
		}
	],
	"images":[
		{
			"mimeType":"image/png",
			"name":"landscape_base",
			"uri":"landscape_base.png"
		}
	],
	"accessors":[
		{
			"bufferView":0,
			"componentType":5126,
			"count":4221,
			"max":[
				115.01371002197266,
				6.740429878234863,
				115.33999633789062
			],
			"min":[
				-115.90945434570312,
				-1.0923923254013062,
				-115.10814666748047
			],
			"type":"VEC3"
		},
		{
			"bufferView":1,
			"componentType":5126,
			"count":4221,
			"type":"VEC3"
		},
		{
			"bufferView":2,
			"componentType":5126,
			"count":4221,
			"type":"VEC2"
		},
		{
			"bufferView":3,
			"componentType":5123,
			"count":24522,
			"type":"SCALAR"
		}
	],
	"bufferViews":[
		{
			"buffer":0,
			"byteLength":50652,
			"byteOffset":0,
			"target":34962
		},
		{
			"buffer":0,
			"byteLength":50652,
			"byteOffset":50652,
			"target":34962
		},
		{
			"buffer":0,
			"byteLength":33768,
			"byteOffset":101304,
			"target":34962
		},
		{
			"buffer":0,
			"byteLength":49044,
			"byteOffset":135072,
			"target":34963
		}
	],
	"samplers":[
		{
			"magFilter":9729,
			"minFilter":9987
		}
	],
	"buffers":[
		{
			"byteLength":184116,
			"uri":"landscape_flat_large.bin"
		}
	]
}
