{
	"asset":{
		"generator":"Khronos glTF Blender I/O v5.0.21",
		"version":"2.0"
	},
	"scene":0,
	"scenes":[
		{
			"name":"Scene",
			"nodes":[
				0
			]
		}
	],
	"nodes":[
		{
			"mesh":0,
			"name":"Icosphere.001"
		}
	],
	"materials":[
		{
			"doubleSided":true,
			"name":"Material.001",
			"pbrMetallicRoughness":{
				"baseColorTexture":{
					"index":0
				},
				"metallicFactor":0,
				"roughnessFactor":0.5196374654769897
			}
		}
	],
	"meshes":[
		{
			"name":"Icosphere.001",
			"primitives":[
				{
					"attributes":{
						"POSITION":0,
						"NORMAL":1,
						"TEXCOORD_0":2,
						"TANGENT":3
					},
					"indices":4,
					"material":0
				}
			]
		}
	],
	"textures":[
		{
			"sampler":0,
			"source":0
		}
	],
	"images":[
		{
			"mimeType":"image/png",
			"name":"trashbag",
			"uri":"trashbag.png"
		}
	],
	"accessors":[
		{
			"bufferView":0,
			"componentType":5126,
			"count":127,
			"max":[
				0.33859264850616455,
				0.7074726819992065,
				0.36408287286758423
			],
			"min":[
				-0.3697171211242676,
				-0.09196994453668594,
				-0.4048968553543091
			],
			"type":"VEC3"
		},
		{
			"bufferView":1,
			"componentType":5126,
			"count":127,
			"type":"VEC3"
		},
		{
			"bufferView":2,
			"componentType":5126,
			"count":127,
			"type":"VEC2"
		},
		{
			"bufferView":3,
			"componentType":5126,
			"count":127,
			"type":"VEC4"
		},
		{
			"bufferView":4,
			"componentType":5123,
			"count":522,
			"type":"SCALAR"
		}
	],
	"bufferViews":[
		{
			"buffer":0,
			"byteLength":1524,
			"byteOffset":0,
			"target":34962
		},
		{
			"buffer":0,
			"byteLength":1524,
			"byteOffset":1524,
			"target":34962
		},
		{
			"buffer":0,
			"byteLength":1016,
			"byteOffset":3048,
			"target":34962
		},
		{
			"buffer":0,
			"byteLength":2032,
			"byteOffset":4064,
			"target":34962
		},
		{
			"buffer":0,
			"byteLength":1044,
			"byteOffset":6096,
			"target":34963
		}
	],
	"samplers":[
		{
			"magFilter":9729,
			"minFilter":9987
		}
	],
	"buffers":[
		{
			"byteLength":7140,
			"uri":"trash.bin"
		}
	]
}
