{
	"asset":{
		"generator":"Khronos glTF Blender I/O v5.0.21",
		"version":"2.0"
	},
	"scene":0,
	"scenes":[
		{
			"name":"Scene",
			"nodes":[
				0,
				1,
				2,
				3,
				4,
				5
			]
		}
	],
	"nodes":[
		{
			"mesh":0,
			"name":"DoorPanel"
		},
		{
			"mesh":1,
			"name":"DoorFrameLeft"
		},
		{
			"mesh":2,
			"name":"DoorFrameRight"
		},
		{
			"mesh":3,
			"name":"DoorFrameTop"
		},
		{
			"mesh":4,
			"name":"DoorknobBack"
		},
		{
			"mesh":5,
			"name":"DoorknobFront"
		}
	],
	"materials":[
		{
			"doubleSided":true,
			"name":"Material.001",
			"pbrMetallicRoughness":{
				"baseColorFactor":[
					0.5225114822387695,
					0.5225114822387695,
					0.5225114822387695,
					1
				],
				"metallicFactor":0.4000000059604645,
				"roughnessFactor":0.5
			}
		}
	],
	"meshes":[
		{
			"name":"Cube.001",
			"primitives":[
				{
					"attributes":{
						"POSITION":0,
						"NORMAL":1,
						"TEXCOORD_0":2
					},
					"indices":3
				}
			]
		},
		{
			"name":"Cube.004",
			"primitives":[
				{
					"attributes":{
						"POSITION":4,
						"NORMAL":5,
						"TEXCOORD_0":6
					},
					"indices":3
				}
			]
		},
		{
			"name":"Cube.005",
			"primitives":[
				{
					"attributes":{
						"POSITION":7,
						"NORMAL":8,
						"TEXCOORD_0":9
					},
					"indices":3
				}
			]
		},
		{
			"name":"Cube.006",
			"primitives":[
				{
					"attributes":{
						"POSITION":10,
						"NORMAL":11,
						"TEXCOORD_0":12
					},
					"indices":3
				}
			]
		},
		{
			"name":"Circle.001",
			"primitives":[
				{
					"attributes":{
						"POSITION":13,
						"NORMAL":14,
						"TEXCOORD_0":15
					},
					"indices":16,
					"material":0
				}
			]
		},
		{
			"name":"Circle",
			"primitives":[
				{
					"attributes":{
						"POSITION":17,
						"NORMAL":18,
						"TEXCOORD_0":19
					},
					"indices":20,
					"material":0
				}
			]
		}
	],
	"accessors":[
		{
			"bufferView":0,
			"componentType":5126,
			"count":24,
			"max":[
				0.42500001192092896,
				1,
				0.05000000074505806
			],
			"min":[
				-0.42500001192092896,
				-1,
				-0.05000000074505806
			],
			"type":"VEC3"
		},
		{
			"bufferView":1,
			"componentType":5126,
			"count":24,
			"type":"VEC3"
		},
		{
			"bufferView":2,
			"componentType":5126,
			"count":24,
			"type":"VEC2"
		},
		{
			"bufferView":3,
			"componentType":5123,
			"count":36,
			"type":"SCALAR"
		},
		{
			"bufferView":4,
			"componentType":5126,
			"count":24,
			"max":[
				-0.42500001192092896,
				1.0750000476837158,
				0.07000000029802322
			],
			"min":[
				-0.5,
				-1,
				-0.07000000029802322
			],
			"type":"VEC3"
		},
		{
			"bufferView":5,
			"componentType":5126,
			"count":24,
			"type":"VEC3"
		},
		{
			"bufferView":6,
			"componentType":5126,
			"count":24,
			"type":"VEC2"
		},
		{
			"bufferView":7,
			"componentType":5126,
			"count":24,
			"max":[
				0.5,
				1.0750000476837158,
				0.07000000029802322
			],
			"min":[
				0.42500001192092896,
				-1,
				-0.07000000029802322
			],
			"type":"VEC3"
		},
		{
			"bufferView":8,
			"componentType":5126,
			"count":24,
			"type":"VEC3"
		},
		{
			"bufferView":9,
			"componentType":5126,
			"count":24,
			"type":"VEC2"
		},
		{
			"bufferView":10,
			"componentType":5126,
			"count":24,
			"max":[
				0.42500001192092896,
				1.0750000476837158,
				0.07000000029802322
			],
			"min":[
				-0.42500001192092896,
				1,
				-0.07000000029802322
			],
			"type":"VEC3"
		},
		{
			"bufferView":11,
			"componentType":5126,
			"count":24,
			"type":"VEC3"
		},
		{
			"bufferView":12,
			"componentType":5126,
			"count":24,
			"type":"VEC2"
		},
		{
			"bufferView":13,
			"componentType":5126,
			"count":544,
			"max":[
				0.4053679406642914,
				0.03706046938896179,
				-0.05000000074505806
			],
			"min":[
				0.2403615415096283,
				-0.017939534038305283,
				-0.14440076053142548
			],
			"type":"VEC3"
		},
		{
			"bufferView":14,
			"componentType":5126,
			"count":544,
			"type":"VEC3"
		},
		{
			"bufferView":15,
			"componentType":5126,
			"count":544,
			"type":"VEC2"
		},
		{
			"bufferView":16,
			"componentType":5123,
			"count":852,
			"type":"SCALAR"
		},
		{
			"bufferView":17,
			"componentType":5126,
			"count":544,
			"max":[
				0.4053679406642914,
				0.037060465663671494,
				0.14440076053142548
			],
			"min":[
				0.2403615415096283,
				-0.01793953776359558,
				0.05000000074505806
			],
			"type":"VEC3"
		},
		{
			"bufferView":18,
			"componentType":5126,
			"count":544,
			"type":"VEC3"
		},
		{
			"bufferView":19,
			"componentType":5126,
			"count":544,
			"type":"VEC2"
		},
		{
			"bufferView":20,
			"componentType":5123,
			"count":852,
			"type":"SCALAR"
		}
	],
	"bufferViews":[
		{
			"buffer":0,
			"byteLength":288,
			"byteOffset":0,
			"target":34962
		},
		{
			"buffer":0,
			"byteLength":288,
			"byteOffset":288,
			"target":34962
		},
		{
			"buffer":0,
			"byteLength":192,
			"byteOffset":576,
			"target":34962
		},
		{
			"buffer":0,
			"byteLength":72,
			"byteOffset":768,
			"target":34963
		},
		{
			"buffer":0,
			"byteLength":288,
			"byteOffset":840,
			"target":34962
		},
		{
			"buffer":0,
			"byteLength":288,
			"byteOffset":1128,
			"target":34962
		},
		{
			"buffer":0,
			"byteLength":192,
			"byteOffset":1416,
			"target":34962
		},
		{
			"buffer":0,
			"byteLength":288,
			"byteOffset":1608,
			"target":34962
		},
		{
			"buffer":0,
			"byteLength":288,
			"byteOffset":1896,
			"target":34962
		},
		{
			"buffer":0,
			"byteLength":192,
			"byteOffset":2184,
			"target":34962
		},
		{
			"buffer":0,
			"byteLength":288,
			"byteOffset":2376,
			"target":34962
		},
		{
			"buffer":0,
			"byteLength":288,
			"byteOffset":2664,
			"target":34962
		},
		{
			"buffer":0,
			"byteLength":192,
			"byteOffset":2952,
			"target":34962
		},
		{
			"buffer":0,
			"byteLength":6528,
			"byteOffset":3144,
			"target":34962
		},
		{
			"buffer":0,
			"byteLength":6528,
			"byteOffset":9672,
			"target":34962
		},
		{
			"buffer":0,
			"byteLength":4352,
			"byteOffset":16200,
			"target":34962
		},
		{
			"buffer":0,
			"byteLength":1704,
			"byteOffset":20552,
			"target":34963
		},
		{
			"buffer":0,
			"byteLength":6528,
			"byteOffset":22256,
			"target":34962
		},
		{
			"buffer":0,
			"byteLength":6528,
			"byteOffset":28784,
			"target":34962
		},
		{
			"buffer":0,
			"byteLength":4352,
			"byteOffset":35312,
			"target":34962
		},
		{
			"buffer":0,
			"byteLength":1704,
			"byteOffset":39664,
			"target":34963
		}
	],
	"buffers":[
		{
			"byteLength":41368,
			"uri":"door.bin"
		}
	]
}
