{
	"asset":{
		"generator":"Khronos glTF Blender I/O v5.0.21",
		"version":"2.0"
	},
	"scene":0,
	"scenes":[
		{
			"name":"Scene",
			"nodes":[
				6
			]
		}
	],
	"nodes":[
		{
			"mesh":0,
			"name":"DoorFrameLeft",
			"translation":[
				-0.09973655641078949,
				1.001883864402771,
				0
			]
		},
		{
			"mesh":1,
			"name":"DoorFrameRight",
			"translation":[
				0.09900560975074768,
				1.001883864402771,
				0
			]
		},
		{
			"mesh":2,
			"name":"DoorFrameTop",
			"translation":[
				0,
				0.9916881322860718,
				0
			]
		},
		{
			"mesh":3,
			"name":"DoorknobBack",
			"translation":[
				0,
				1.001883864402771,
				0
			]
		},
		{
			"mesh":4,
			"name":"DoorknobFront",
			"translation":[
				0,
				1.001883864402771,
				0
			]
		},
		{
			"mesh":5,
			"name":"DoorPanel",
			"translation":[
				0,
				1.001883864402771,
				0
			]
		},
		{
			"children":[
				0,
				1,
				2,
				3,
				4,
				5
			],
			"name":"door",
			"translation":[
				0,
				-0.19911447167396545,
				0
			]
		}
	],
	"materials":[
		{
			"doubleSided":true,
			"name":"Material.001",
			"pbrMetallicRoughness":{
				"baseColorFactor":[
					0.5225114822387695,
					0.5225114822387695,
					0.5225114822387695,
					1
				],
				"metallicFactor":0.4000000059604645,
				"roughnessFactor":0.5
			}
		}
	],
	"meshes":[
		{
			"name":"Cube.004",
			"primitives":[
				{
					"attributes":{
						"POSITION":0,
						"NORMAL":1,
						"TEXCOORD_0":2
					},
					"indices":3
				}
			]
		},
		{
			"name":"Cube.005",
			"primitives":[
				{
					"attributes":{
						"POSITION":4,
						"NORMAL":5,
						"TEXCOORD_0":6
					},
					"indices":3
				}
			]
		},
		{
			"name":"Cube.006",
			"primitives":[
				{
					"attributes":{
						"POSITION":7,
						"NORMAL":8,
						"TEXCOORD_0":9
					},
					"indices":3
				}
			]
		},
		{
			"name":"Circle.001",
			"primitives":[
				{
					"attributes":{
						"POSITION":10,
						"NORMAL":11,
						"TEXCOORD_0":12
					},
					"indices":13,
					"material":0
				}
			]
		},
		{
			"name":"Circle",
			"primitives":[
				{
					"attributes":{
						"POSITION":14,
						"NORMAL":15,
						"TEXCOORD_0":16
					},
					"indices":17,
					"material":0
				}
			]
		},
		{
			"name":"Cube.001",
			"primitives":[
				{
					"attributes":{
						"POSITION":18,
						"NORMAL":19,
						"TEXCOORD_0":20
					},
					"indices":21
				}
			]
		}
	],
	"accessors":[
		{
			"bufferView":0,
			"componentType":5126,
			"count":24,
			"max":[
				-0.42500004172325134,
				1.037177324295044,
				0.07000000774860382
			],
			"min":[
				-0.5,
				-1,
				-0.07000000774860382
			],
			"type":"VEC3"
		},
		{
			"bufferView":1,
			"componentType":5126,
			"count":24,
			"type":"VEC3"
		},
		{
			"bufferView":2,
			"componentType":5126,
			"count":24,
			"type":"VEC2"
		},
		{
			"bufferView":3,
			"componentType":5123,
			"count":36,
			"type":"SCALAR"
		},
		{
			"bufferView":4,
			"componentType":5126,
			"count":24,
			"max":[
				0.5,
				1.037177324295044,
				0.07000000774860382
			],
			"min":[
				0.42500004172325134,
				-1,
				-0.07000000774860382
			],
			"type":"VEC3"
		},
		{
			"bufferView":5,
			"componentType":5126,
			"count":24,
			"type":"VEC3"
		},
		{
			"bufferView":6,
			"componentType":5126,
			"count":24,
			"type":"VEC2"
		},
		{
			"bufferView":7,
			"componentType":5126,
			"count":24,
			"max":[
				0.5233204364776611,
				1.0473730564117432,
				0.07000000774860382
			],
			"min":[
				-0.5232068300247192,
				1,
				-0.07000000774860382
			],
			"type":"VEC3"
		},
		{
			"bufferView":8,
			"componentType":5126,
			"count":24,
			"type":"VEC3"
		},
		{
			"bufferView":9,
			"componentType":5126,
			"count":24,
			"type":"VEC2"
		},
		{
			"bufferView":10,
			"componentType":5126,
			"count":402,
			"max":[
				0.4053679406642914,
				0.03706046938896179,
				-0.05000000447034836
			],
			"min":[
				0.2403615415096283,
				-0.017939534038305283,
				-0.14440076053142548
			],
			"type":"VEC3"
		},
		{
			"bufferView":11,
			"componentType":5126,
			"count":402,
			"type":"VEC3"
		},
		{
			"bufferView":12,
			"componentType":5126,
			"count":402,
			"type":"VEC2"
		},
		{
			"bufferView":13,
			"componentType":5123,
			"count":840,
			"type":"SCALAR"
		},
		{
			"bufferView":14,
			"componentType":5126,
			"count":394,
			"max":[
				0.4053679406642914,
				0.037060465663671494,
				0.14440076053142548
			],
			"min":[
				0.2403615415096283,
				-0.01793953776359558,
				0.05000000447034836
			],
			"type":"VEC3"
		},
		{
			"bufferView":15,
			"componentType":5126,
			"count":394,
			"type":"VEC3"
		},
		{
			"bufferView":16,
			"componentType":5126,
			"count":394,
			"type":"VEC2"
		},
		{
			"bufferView":17,
			"componentType":5123,
			"count":834,
			"type":"SCALAR"
		},
		{
			"bufferView":18,
			"componentType":5126,
			"count":24,
			"max":[
				0.5233204364776611,
				0.9898042678833008,
				0.07000000774860382
			],
			"min":[
				-0.5232067704200745,
				-1,
				-0.05000000447034836
			],
			"type":"VEC3"
		},
		{
			"bufferView":19,
			"componentType":5126,
			"count":24,
			"type":"VEC3"
		},
		{
			"bufferView":20,
			"componentType":5126,
			"count":24,
			"type":"VEC2"
		},
		{
			"bufferView":21,
			"componentType":5123,
			"count":36,
			"type":"SCALAR"
		}
	],
	"bufferViews":[
		{
			"buffer":0,
			"byteLength":288,
			"byteOffset":0,
			"target":34962
		},
		{
			"buffer":0,
			"byteLength":288,
			"byteOffset":288,
			"target":34962
		},
		{
			"buffer":0,
			"byteLength":192,
			"byteOffset":576,
			"target":34962
		},
		{
			"buffer":0,
			"byteLength":72,
			"byteOffset":768,
			"target":34963
		},
		{
			"buffer":0,
			"byteLength":288,
			"byteOffset":840,
			"target":34962
		},
		{
			"buffer":0,
			"byteLength":288,
			"byteOffset":1128,
			"target":34962
		},
		{
			"buffer":0,
			"byteLength":192,
			"byteOffset":1416,
			"target":34962
		},
		{
			"buffer":0,
			"byteLength":288,
			"byteOffset":1608,
			"target":34962
		},
		{
			"buffer":0,
			"byteLength":288,
			"byteOffset":1896,
			"target":34962
		},
		{
			"buffer":0,
			"byteLength":192,
			"byteOffset":2184,
			"target":34962
		},
		{
			"buffer":0,
			"byteLength":4824,
			"byteOffset":2376,
			"target":34962
		},
		{
			"buffer":0,
			"byteLength":4824,
			"byteOffset":7200,
			"target":34962
		},
		{
			"buffer":0,
			"byteLength":3216,
			"byteOffset":12024,
			"target":34962
		},
		{
			"buffer":0,
			"byteLength":1680,
			"byteOffset":15240,
			"target":34963
		},
		{
			"buffer":0,
			"byteLength":4728,
			"byteOffset":16920,
			"target":34962
		},
		{
			"buffer":0,
			"byteLength":4728,
			"byteOffset":21648,
			"target":34962
		},
		{
			"buffer":0,
			"byteLength":3152,
			"byteOffset":26376,
			"target":34962
		},
		{
			"buffer":0,
			"byteLength":1668,
			"byteOffset":29528,
			"target":34963
		},
		{
			"buffer":0,
			"byteLength":288,
			"byteOffset":31196,
			"target":34962
		},
		{
			"buffer":0,
			"byteLength":288,
			"byteOffset":31484,
			"target":34962
		},
		{
			"buffer":0,
			"byteLength":192,
			"byteOffset":31772,
			"target":34962
		},
		{
			"buffer":0,
			"byteLength":72,
			"byteOffset":31964,
			"target":34963
		}
	],
	"buffers":[
		{
			"byteLength":32036,
			"uri":"door.bin"
		}
	]
}
