{
	"asset":{
		"generator":"Khronos glTF Blender I/O v5.0.21",
		"version":"2.0"
	},
	"scene":0,
	"scenes":[
		{
			"name":"Scene",
			"nodes":[
				0
			]
		}
	],
	"nodes":[
		{
			"mesh":0,
			"name":"rock_moss_set_01_rock04",
			"translation":[
				-2.700000047683716,
				0,
				1.5772186517715454
			]
		}
	],
	"materials":[
		{
			"doubleSided":true,
			"name":"rock_moss_set_01",
			"normalTexture":{
				"index":0
			},
			"pbrMetallicRoughness":{
				"baseColorTexture":{
					"index":1
				},
				"metallicFactor":0,
				"metallicRoughnessTexture":{
					"index":2
				}
			}
		}
	],
	"meshes":[
		{
			"name":"medium.001",
			"primitives":[
				{
					"attributes":{
						"POSITION":0,
						"NORMAL":1,
						"TEXCOORD_0":2,
						"TANGENT":3
					},
					"indices":4,
					"material":0
				}
			]
		}
	],
	"textures":[
		{
			"sampler":0,
			"source":0
		},
		{
			"sampler":0,
			"source":1
		},
		{
			"sampler":0,
			"source":2
		}
	],
	"images":[
		{
			"mimeType":"image/png",
			"name":"rock_moss_set_01_nor_gl",
			"uri":"rock_moss_set_01_nor_gl.png"
		},
		{
			"mimeType":"image/png",
			"name":"rock_moss_set_01_diff_1k",
			"uri":"rock_moss_set_01_diff_1k.png"
		},
		{
			"mimeType":"image/png",
			"name":"rock_moss_set_01_rough_1k",
			"uri":"rock_moss_set_01_rough_1k.png"
		}
	],
	"accessors":[
		{
			"bufferView":0,
			"componentType":5126,
			"count":695,
			"max":[
				1.1770806312561035,
				1.1085715293884277,
				1.0750837326049805
			],
			"min":[
				-0.9550782442092896,
				-0.6555169224739075,
				-0.8867086172103882
			],
			"type":"VEC3"
		},
		{
			"bufferView":1,
			"componentType":5126,
			"count":695,
			"type":"VEC3"
		},
		{
			"bufferView":2,
			"componentType":5126,
			"count":695,
			"type":"VEC2"
		},
		{
			"bufferView":3,
			"componentType":5126,
			"count":695,
			"type":"VEC4"
		},
		{
			"bufferView":4,
			"componentType":5123,
			"count":3171,
			"type":"SCALAR"
		}
	],
	"bufferViews":[
		{
			"buffer":0,
			"byteLength":8340,
			"byteOffset":0,
			"target":34962
		},
		{
			"buffer":0,
			"byteLength":8340,
			"byteOffset":8340,
			"target":34962
		},
		{
			"buffer":0,
			"byteLength":5560,
			"byteOffset":16680,
			"target":34962
		},
		{
			"buffer":0,
			"byteLength":11120,
			"byteOffset":22240,
			"target":34962
		},
		{
			"buffer":0,
			"byteLength":6342,
			"byteOffset":33360,
			"target":34963
		}
	],
	"samplers":[
		{
			"magFilter":9729,
			"minFilter":9987
		}
	],
	"buffers":[
		{
			"byteLength":39704,
			"uri":"rocks_4.bin"
		}
	]
}
