{
	"asset":{
		"generator":"Khronos glTF Blender I/O v5.0.21",
		"version":"2.0"
	},
	"scene":0,
	"scenes":[
		{
			"name":"Scene",
			"nodes":[
				0
			]
		}
	],
	"nodes":[
		{
			"mesh":0,
			"name":"rock_moss_set_01_rock03",
			"translation":[
				3,
				0,
				-2.122781276702881
			]
		}
	],
	"materials":[
		{
			"doubleSided":true,
			"name":"rock_moss_set_01",
			"normalTexture":{
				"index":0
			},
			"pbrMetallicRoughness":{
				"baseColorTexture":{
					"index":1
				},
				"metallicFactor":0,
				"metallicRoughnessTexture":{
					"index":2
				}
			}
		}
	],
	"meshes":[
		{
			"name":"modelShape",
			"primitives":[
				{
					"attributes":{
						"POSITION":0,
						"NORMAL":1,
						"TEXCOORD_0":2,
						"TANGENT":3
					},
					"indices":4,
					"material":0
				}
			]
		}
	],
	"textures":[
		{
			"sampler":0,
			"source":0
		},
		{
			"sampler":0,
			"source":1
		},
		{
			"sampler":0,
			"source":2
		}
	],
	"images":[
		{
			"mimeType":"image/png",
			"name":"rock_moss_set_01_nor_gl",
			"uri":"rock_moss_set_01_nor_gl.png"
		},
		{
			"mimeType":"image/png",
			"name":"rock_moss_set_01_diff_1k",
			"uri":"rock_moss_set_01_diff_1k.png"
		},
		{
			"mimeType":"image/png",
			"name":"rock_moss_set_01_rough_1k",
			"uri":"rock_moss_set_01_rough_1k.png"
		}
	],
	"accessors":[
		{
			"bufferView":0,
			"componentType":5126,
			"count":353,
			"max":[
				1.0779415369033813,
				0.6901261210441589,
				1.0579826831817627
			],
			"min":[
				-1.0165765285491943,
				-0.400117963552475,
				-1.0212445259094238
			],
			"type":"VEC3"
		},
		{
			"bufferView":1,
			"componentType":5126,
			"count":353,
			"type":"VEC3"
		},
		{
			"bufferView":2,
			"componentType":5126,
			"count":353,
			"type":"VEC2"
		},
		{
			"bufferView":3,
			"componentType":5126,
			"count":353,
			"type":"VEC4"
		},
		{
			"bufferView":4,
			"componentType":5123,
			"count":1500,
			"type":"SCALAR"
		}
	],
	"bufferViews":[
		{
			"buffer":0,
			"byteLength":4236,
			"byteOffset":0,
			"target":34962
		},
		{
			"buffer":0,
			"byteLength":4236,
			"byteOffset":4236,
			"target":34962
		},
		{
			"buffer":0,
			"byteLength":2824,
			"byteOffset":8472,
			"target":34962
		},
		{
			"buffer":0,
			"byteLength":5648,
			"byteOffset":11296,
			"target":34962
		},
		{
			"buffer":0,
			"byteLength":3000,
			"byteOffset":16944,
			"target":34963
		}
	],
	"samplers":[
		{
			"magFilter":9729,
			"minFilter":9987
		}
	],
	"buffers":[
		{
			"byteLength":19944,
			"uri":"rocks_3.bin"
		}
	]
}
