{
	"asset":{
		"generator":"Khronos glTF Blender I/O v5.0.21",
		"version":"2.0"
	},
	"scene":0,
	"scenes":[
		{
			"name":"Scene",
			"nodes":[
				0
			]
		}
	],
	"nodes":[
		{
			"mesh":0,
			"name":"rock_moss_set_01_rock02",
			"translation":[
				0,
				0,
				-2.122781276702881
			]
		}
	],
	"materials":[
		{
			"doubleSided":true,
			"name":"rock_moss_set_01",
			"normalTexture":{
				"index":0
			},
			"pbrMetallicRoughness":{
				"baseColorTexture":{
					"index":1
				},
				"metallicFactor":0,
				"metallicRoughnessTexture":{
					"index":2
				}
			}
		}
	],
	"meshes":[
		{
			"name":"modelShape.002",
			"primitives":[
				{
					"attributes":{
						"POSITION":0,
						"NORMAL":1,
						"TEXCOORD_0":2,
						"TANGENT":3
					},
					"indices":4,
					"material":0
				}
			]
		}
	],
	"textures":[
		{
			"sampler":0,
			"source":0
		},
		{
			"sampler":0,
			"source":1
		},
		{
			"sampler":0,
			"source":2
		}
	],
	"images":[
		{
			"mimeType":"image/png",
			"name":"rock_moss_set_01_nor_gl",
			"uri":"rock_moss_set_01_nor_gl.png"
		},
		{
			"mimeType":"image/png",
			"name":"rock_moss_set_01_diff_1k",
			"uri":"rock_moss_set_01_diff_1k.png"
		},
		{
			"mimeType":"image/png",
			"name":"rock_moss_set_01_rough_1k",
			"uri":"rock_moss_set_01_rough_1k.png"
		}
	],
	"accessors":[
		{
			"bufferView":0,
			"componentType":5126,
			"count":986,
			"max":[
				1.3819568157196045,
				0.7949475646018982,
				1.6182299852371216
			],
			"min":[
				-1.2708075046539307,
				-0.45681649446487427,
				-1.6551600694656372
			],
			"type":"VEC3"
		},
		{
			"bufferView":1,
			"componentType":5126,
			"count":986,
			"type":"VEC3"
		},
		{
			"bufferView":2,
			"componentType":5126,
			"count":986,
			"type":"VEC2"
		},
		{
			"bufferView":3,
			"componentType":5126,
			"count":986,
			"type":"VEC4"
		},
		{
			"bufferView":4,
			"componentType":5123,
			"count":3294,
			"type":"SCALAR"
		}
	],
	"bufferViews":[
		{
			"buffer":0,
			"byteLength":11832,
			"byteOffset":0,
			"target":34962
		},
		{
			"buffer":0,
			"byteLength":11832,
			"byteOffset":11832,
			"target":34962
		},
		{
			"buffer":0,
			"byteLength":7888,
			"byteOffset":23664,
			"target":34962
		},
		{
			"buffer":0,
			"byteLength":15776,
			"byteOffset":31552,
			"target":34962
		},
		{
			"buffer":0,
			"byteLength":6588,
			"byteOffset":47328,
			"target":34963
		}
	],
	"samplers":[
		{
			"magFilter":9729,
			"minFilter":9987
		}
	],
	"buffers":[
		{
			"byteLength":53916,
			"uri":"rocks_2.bin"
		}
	]
}
