{
	"asset":{
		"generator":"Khronos glTF Blender I/O v5.0.21",
		"version":"2.0"
	},
	"scene":0,
	"scenes":[
		{
			"name":"Scene",
			"nodes":[
				0,
				1,
				2,
				3,
				4,
				5
			]
		}
	],
	"nodes":[
		{
			"mesh":0,
			"name":"rock_moss_set_01_rock01",
			"translation":[
				-2.799999952316284,
				0,
				-2.122781276702881
			]
		},
		{
			"mesh":1,
			"name":"rock_moss_set_01_rock02",
			"translation":[
				0,
				0,
				-2.122781276702881
			]
		},
		{
			"mesh":2,
			"name":"rock_moss_set_01_rock03",
			"translation":[
				3,
				0,
				-2.122781276702881
			]
		},
		{
			"mesh":3,
			"name":"rock_moss_set_01_rock04",
			"translation":[
				-2.700000047683716,
				0,
				1.5772186517715454
			]
		},
		{
			"mesh":4,
			"name":"rock_moss_set_01_rock05",
			"translation":[
				0.15000000596046448,
				0,
				1.4772186279296875
			]
		},
		{
			"mesh":5,
			"name":"rock_moss_set_01_rock06",
			"translation":[
				2.799999952316284,
				0,
				1.5772186517715454
			]
		}
	],
	"materials":[
		{
			"doubleSided":true,
			"name":"rock_moss_set_01",
			"normalTexture":{
				"index":0
			},
			"pbrMetallicRoughness":{
				"baseColorTexture":{
					"index":1
				},
				"metallicFactor":0,
				"metallicRoughnessTexture":{
					"index":2
				}
			}
		}
	],
	"meshes":[
		{
			"name":"modelShape.005",
			"primitives":[
				{
					"attributes":{
						"POSITION":0,
						"NORMAL":1,
						"TEXCOORD_0":2,
						"TANGENT":3
					},
					"indices":4,
					"material":0
				}
			]
		},
		{
			"name":"modelShape.002",
			"primitives":[
				{
					"attributes":{
						"POSITION":5,
						"NORMAL":6,
						"TEXCOORD_0":7,
						"TANGENT":8
					},
					"indices":9,
					"material":0
				}
			]
		},
		{
			"name":"modelShape",
			"primitives":[
				{
					"attributes":{
						"POSITION":10,
						"NORMAL":11,
						"TEXCOORD_0":12,
						"TANGENT":13
					},
					"indices":14,
					"material":0
				}
			]
		},
		{
			"name":"medium.001",
			"primitives":[
				{
					"attributes":{
						"POSITION":15,
						"NORMAL":16,
						"TEXCOORD_0":17,
						"TANGENT":18
					},
					"indices":19,
					"material":0
				}
			]
		},
		{
			"name":"modelShape.003",
			"primitives":[
				{
					"attributes":{
						"POSITION":20,
						"NORMAL":21,
						"TEXCOORD_0":22,
						"TANGENT":23
					},
					"indices":24,
					"material":0
				}
			]
		},
		{
			"name":"mesh1-geometry.003",
			"primitives":[
				{
					"attributes":{
						"POSITION":25,
						"NORMAL":26,
						"TEXCOORD_0":27,
						"TANGENT":28
					},
					"indices":29,
					"material":0
				}
			]
		}
	],
	"textures":[
		{
			"sampler":0,
			"source":0
		},
		{
			"sampler":0,
			"source":1
		},
		{
			"sampler":0,
			"source":2
		}
	],
	"images":[
		{
			"mimeType":"image/png",
			"name":"rock_moss_set_01_nor_gl",
			"uri":"rock_moss_set_01_nor_gl.png"
		},
		{
			"mimeType":"image/png",
			"name":"rock_moss_set_01_diff_1k",
			"uri":"rock_moss_set_01_diff_1k.png"
		},
		{
			"mimeType":"image/png",
			"name":"rock_moss_set_01_rough_1k",
			"uri":"rock_moss_set_01_rough_1k.png"
		}
	],
	"accessors":[
		{
			"bufferView":0,
			"componentType":5126,
			"count":778,
			"max":[
				1.1275686025619507,
				0.8162680268287659,
				1.66848623752594
			],
			"min":[
				-1.1167504787445068,
				-0.6613520979881287,
				-1.6871098279953003
			],
			"type":"VEC3"
		},
		{
			"bufferView":1,
			"componentType":5126,
			"count":778,
			"type":"VEC3"
		},
		{
			"bufferView":2,
			"componentType":5126,
			"count":778,
			"type":"VEC2"
		},
		{
			"bufferView":3,
			"componentType":5126,
			"count":778,
			"type":"VEC4"
		},
		{
			"bufferView":4,
			"componentType":5123,
			"count":3300,
			"type":"SCALAR"
		},
		{
			"bufferView":5,
			"componentType":5126,
			"count":986,
			"max":[
				1.3819568157196045,
				0.7949475646018982,
				1.6182299852371216
			],
			"min":[
				-1.2708075046539307,
				-0.45681649446487427,
				-1.6551600694656372
			],
			"type":"VEC3"
		},
		{
			"bufferView":6,
			"componentType":5126,
			"count":986,
			"type":"VEC3"
		},
		{
			"bufferView":7,
			"componentType":5126,
			"count":986,
			"type":"VEC2"
		},
		{
			"bufferView":8,
			"componentType":5126,
			"count":986,
			"type":"VEC4"
		},
		{
			"bufferView":9,
			"componentType":5123,
			"count":3294,
			"type":"SCALAR"
		},
		{
			"bufferView":10,
			"componentType":5126,
			"count":353,
			"max":[
				1.0779415369033813,
				0.6901261210441589,
				1.0579826831817627
			],
			"min":[
				-1.0165765285491943,
				-0.400117963552475,
				-1.0212445259094238
			],
			"type":"VEC3"
		},
		{
			"bufferView":11,
			"componentType":5126,
			"count":353,
			"type":"VEC3"
		},
		{
			"bufferView":12,
			"componentType":5126,
			"count":353,
			"type":"VEC2"
		},
		{
			"bufferView":13,
			"componentType":5126,
			"count":353,
			"type":"VEC4"
		},
		{
			"bufferView":14,
			"componentType":5123,
			"count":1500,
			"type":"SCALAR"
		},
		{
			"bufferView":15,
			"componentType":5126,
			"count":695,
			"max":[
				1.1770806312561035,
				1.1085715293884277,
				1.0750837326049805
			],
			"min":[
				-0.9550782442092896,
				-0.6555169224739075,
				-0.8867086172103882
			],
			"type":"VEC3"
		},
		{
			"bufferView":16,
			"componentType":5126,
			"count":695,
			"type":"VEC3"
		},
		{
			"bufferView":17,
			"componentType":5126,
			"count":695,
			"type":"VEC2"
		},
		{
			"bufferView":18,
			"componentType":5126,
			"count":695,
			"type":"VEC4"
		},
		{
			"bufferView":19,
			"componentType":5123,
			"count":3171,
			"type":"SCALAR"
		},
		{
			"bufferView":20,
			"componentType":5126,
			"count":917,
			"max":[
				0.9573240876197815,
				0.6350405216217041,
				1.6532825231552124
			],
			"min":[
				-0.8553975224494934,
				-0.5764549374580383,
				-1.3541332483291626
			],
			"type":"VEC3"
		},
		{
			"bufferView":21,
			"componentType":5126,
			"count":917,
			"type":"VEC3"
		},
		{
			"bufferView":22,
			"componentType":5126,
			"count":917,
			"type":"VEC2"
		},
		{
			"bufferView":23,
			"componentType":5126,
			"count":917,
			"type":"VEC4"
		},
		{
			"bufferView":24,
			"componentType":5123,
			"count":4962,
			"type":"SCALAR"
		},
		{
			"bufferView":25,
			"componentType":5126,
			"count":556,
			"max":[
				0.9327085018157959,
				0.727387547492981,
				1.2752927541732788
			],
			"min":[
				-1.1863555908203125,
				-0.5253563523292542,
				-1.4888885021209717
			],
			"type":"VEC3"
		},
		{
			"bufferView":26,
			"componentType":5126,
			"count":556,
			"type":"VEC3"
		},
		{
			"bufferView":27,
			"componentType":5126,
			"count":556,
			"type":"VEC2"
		},
		{
			"bufferView":28,
			"componentType":5126,
			"count":556,
			"type":"VEC4"
		},
		{
			"bufferView":29,
			"componentType":5123,
			"count":2694,
			"type":"SCALAR"
		}
	],
	"bufferViews":[
		{
			"buffer":0,
			"byteLength":9336,
			"byteOffset":0,
			"target":34962
		},
		{
			"buffer":0,
			"byteLength":9336,
			"byteOffset":9336,
			"target":34962
		},
		{
			"buffer":0,
			"byteLength":6224,
			"byteOffset":18672,
			"target":34962
		},
		{
			"buffer":0,
			"byteLength":12448,
			"byteOffset":24896,
			"target":34962
		},
		{
			"buffer":0,
			"byteLength":6600,
			"byteOffset":37344,
			"target":34963
		},
		{
			"buffer":0,
			"byteLength":11832,
			"byteOffset":43944,
			"target":34962
		},
		{
			"buffer":0,
			"byteLength":11832,
			"byteOffset":55776,
			"target":34962
		},
		{
			"buffer":0,
			"byteLength":7888,
			"byteOffset":67608,
			"target":34962
		},
		{
			"buffer":0,
			"byteLength":15776,
			"byteOffset":75496,
			"target":34962
		},
		{
			"buffer":0,
			"byteLength":6588,
			"byteOffset":91272,
			"target":34963
		},
		{
			"buffer":0,
			"byteLength":4236,
			"byteOffset":97860,
			"target":34962
		},
		{
			"buffer":0,
			"byteLength":4236,
			"byteOffset":102096,
			"target":34962
		},
		{
			"buffer":0,
			"byteLength":2824,
			"byteOffset":106332,
			"target":34962
		},
		{
			"buffer":0,
			"byteLength":5648,
			"byteOffset":109156,
			"target":34962
		},
		{
			"buffer":0,
			"byteLength":3000,
			"byteOffset":114804,
			"target":34963
		},
		{
			"buffer":0,
			"byteLength":8340,
			"byteOffset":117804,
			"target":34962
		},
		{
			"buffer":0,
			"byteLength":8340,
			"byteOffset":126144,
			"target":34962
		},
		{
			"buffer":0,
			"byteLength":5560,
			"byteOffset":134484,
			"target":34962
		},
		{
			"buffer":0,
			"byteLength":11120,
			"byteOffset":140044,
			"target":34962
		},
		{
			"buffer":0,
			"byteLength":6342,
			"byteOffset":151164,
			"target":34963
		},
		{
			"buffer":0,
			"byteLength":11004,
			"byteOffset":157508,
			"target":34962
		},
		{
			"buffer":0,
			"byteLength":11004,
			"byteOffset":168512,
			"target":34962
		},
		{
			"buffer":0,
			"byteLength":7336,
			"byteOffset":179516,
			"target":34962
		},
		{
			"buffer":0,
			"byteLength":14672,
			"byteOffset":186852,
			"target":34962
		},
		{
			"buffer":0,
			"byteLength":9924,
			"byteOffset":201524,
			"target":34963
		},
		{
			"buffer":0,
			"byteLength":6672,
			"byteOffset":211448,
			"target":34962
		},
		{
			"buffer":0,
			"byteLength":6672,
			"byteOffset":218120,
			"target":34962
		},
		{
			"buffer":0,
			"byteLength":4448,
			"byteOffset":224792,
			"target":34962
		},
		{
			"buffer":0,
			"byteLength":8896,
			"byteOffset":229240,
			"target":34962
		},
		{
			"buffer":0,
			"byteLength":5388,
			"byteOffset":238136,
			"target":34963
		}
	],
	"samplers":[
		{
			"magFilter":9729,
			"minFilter":9987
		}
	],
	"buffers":[
		{
			"byteLength":243524,
			"uri":"rocks_low_lod.bin"
		}
	]
}
