{
	"asset":{
		"generator":"Khronos glTF Blender I/O v5.0.21",
		"version":"2.0"
	},
	"scene":0,
	"scenes":[
		{
			"name":"Scene",
			"nodes":[
				0
			]
		}
	],
	"nodes":[
		{
			"mesh":0,
			"name":"rock_moss_set_01_rock05",
			"translation":[
				0.15000000596046448,
				0,
				1.4772186279296875
			]
		}
	],
	"materials":[
		{
			"doubleSided":true,
			"name":"rock_moss_set_01",
			"normalTexture":{
				"index":0
			},
			"pbrMetallicRoughness":{
				"baseColorTexture":{
					"index":1
				},
				"metallicFactor":0,
				"metallicRoughnessTexture":{
					"index":2
				}
			}
		}
	],
	"meshes":[
		{
			"name":"modelShape.003",
			"primitives":[
				{
					"attributes":{
						"POSITION":0,
						"NORMAL":1,
						"TEXCOORD_0":2,
						"TANGENT":3
					},
					"indices":4,
					"material":0
				}
			]
		}
	],
	"textures":[
		{
			"sampler":0,
			"source":0
		},
		{
			"sampler":0,
			"source":1
		},
		{
			"sampler":0,
			"source":2
		}
	],
	"images":[
		{
			"mimeType":"image/png",
			"name":"rock_moss_set_01_nor_gl",
			"uri":"rock_moss_set_01_nor_gl.png"
		},
		{
			"mimeType":"image/png",
			"name":"rock_moss_set_01_diff_1k",
			"uri":"rock_moss_set_01_diff_1k.png"
		},
		{
			"mimeType":"image/png",
			"name":"rock_moss_set_01_rough_1k",
			"uri":"rock_moss_set_01_rough_1k.png"
		}
	],
	"accessors":[
		{
			"bufferView":0,
			"componentType":5126,
			"count":917,
			"max":[
				0.9573240876197815,
				0.6350405216217041,
				1.6532825231552124
			],
			"min":[
				-0.8553975224494934,
				-0.5764549374580383,
				-1.3541332483291626
			],
			"type":"VEC3"
		},
		{
			"bufferView":1,
			"componentType":5126,
			"count":917,
			"type":"VEC3"
		},
		{
			"bufferView":2,
			"componentType":5126,
			"count":917,
			"type":"VEC2"
		},
		{
			"bufferView":3,
			"componentType":5126,
			"count":917,
			"type":"VEC4"
		},
		{
			"bufferView":4,
			"componentType":5123,
			"count":4962,
			"type":"SCALAR"
		}
	],
	"bufferViews":[
		{
			"buffer":0,
			"byteLength":11004,
			"byteOffset":0,
			"target":34962
		},
		{
			"buffer":0,
			"byteLength":11004,
			"byteOffset":11004,
			"target":34962
		},
		{
			"buffer":0,
			"byteLength":7336,
			"byteOffset":22008,
			"target":34962
		},
		{
			"buffer":0,
			"byteLength":14672,
			"byteOffset":29344,
			"target":34962
		},
		{
			"buffer":0,
			"byteLength":9924,
			"byteOffset":44016,
			"target":34963
		}
	],
	"samplers":[
		{
			"magFilter":9729,
			"minFilter":9987
		}
	],
	"buffers":[
		{
			"byteLength":53940,
			"uri":"rocks_5.bin"
		}
	]
}
