{
	"asset":{
		"generator":"Khronos glTF Blender I/O v5.0.21",
		"version":"2.0"
	},
	"scene":0,
	"scenes":[
		{
			"name":"Scene",
			"nodes":[
				0
			]
		}
	],
	"nodes":[
		{
			"mesh":0,
			"name":"rock_moss_set_01_rock01",
			"translation":[
				-2.799999952316284,
				0,
				-2.122781276702881
			]
		}
	],
	"materials":[
		{
			"doubleSided":true,
			"name":"rock_moss_set_01",
			"normalTexture":{
				"index":0
			},
			"pbrMetallicRoughness":{
				"baseColorTexture":{
					"index":1
				},
				"metallicFactor":0,
				"metallicRoughnessTexture":{
					"index":2
				}
			}
		}
	],
	"meshes":[
		{
			"name":"modelShape.005",
			"primitives":[
				{
					"attributes":{
						"POSITION":0,
						"NORMAL":1,
						"TEXCOORD_0":2,
						"TANGENT":3
					},
					"indices":4,
					"material":0
				}
			]
		}
	],
	"textures":[
		{
			"sampler":0,
			"source":0
		},
		{
			"sampler":0,
			"source":1
		},
		{
			"sampler":0,
			"source":2
		}
	],
	"images":[
		{
			"mimeType":"image/png",
			"name":"rock_moss_set_01_nor_gl",
			"uri":"rock_moss_set_01_nor_gl.png"
		},
		{
			"mimeType":"image/png",
			"name":"rock_moss_set_01_diff_1k",
			"uri":"rock_moss_set_01_diff_1k.png"
		},
		{
			"mimeType":"image/png",
			"name":"rock_moss_set_01_rough_1k",
			"uri":"rock_moss_set_01_rough_1k.png"
		}
	],
	"accessors":[
		{
			"bufferView":0,
			"componentType":5126,
			"count":778,
			"max":[
				1.1275686025619507,
				0.8162680268287659,
				1.66848623752594
			],
			"min":[
				-1.1167504787445068,
				-0.6613520979881287,
				-1.6871098279953003
			],
			"type":"VEC3"
		},
		{
			"bufferView":1,
			"componentType":5126,
			"count":778,
			"type":"VEC3"
		},
		{
			"bufferView":2,
			"componentType":5126,
			"count":778,
			"type":"VEC2"
		},
		{
			"bufferView":3,
			"componentType":5126,
			"count":778,
			"type":"VEC4"
		},
		{
			"bufferView":4,
			"componentType":5123,
			"count":3300,
			"type":"SCALAR"
		}
	],
	"bufferViews":[
		{
			"buffer":0,
			"byteLength":9336,
			"byteOffset":0,
			"target":34962
		},
		{
			"buffer":0,
			"byteLength":9336,
			"byteOffset":9336,
			"target":34962
		},
		{
			"buffer":0,
			"byteLength":6224,
			"byteOffset":18672,
			"target":34962
		},
		{
			"buffer":0,
			"byteLength":12448,
			"byteOffset":24896,
			"target":34962
		},
		{
			"buffer":0,
			"byteLength":6600,
			"byteOffset":37344,
			"target":34963
		}
	],
	"samplers":[
		{
			"magFilter":9729,
			"minFilter":9987
		}
	],
	"buffers":[
		{
			"byteLength":43944,
			"uri":"rocks_1.bin"
		}
	]
}
