{
	"asset":{
		"generator":"Khronos glTF Blender I/O v5.0.21",
		"version":"2.0"
	},
	"scene":0,
	"scenes":[
		{
			"name":"Scene",
			"nodes":[
				0
			]
		}
	],
	"nodes":[
		{
			"extras":{
				"currentUVSet":"map1"
			},
			"mesh":0,
			"name":"base_mesh"
		}
	],
	"materials":[
		{
			"doubleSided":true,
			"name":"jan",
			"pbrMetallicRoughness":{
				"baseColorTexture":{
					"index":0
				},
				"metallicFactor":0,
				"roughnessFactor":0.8573318719863892
			}
		}
	],
	"meshes":[
		{
			"name":"Mesh",
			"primitives":[
				{
					"attributes":{
						"POSITION":0,
						"NORMAL":1,
						"TEXCOORD_0":2,
						"TANGENT":3
					},
					"indices":4,
					"material":0
				}
			]
		}
	],
	"textures":[
		{
			"sampler":0,
			"source":0
		}
	],
	"images":[
		{
			"mimeType":"image/png",
			"name":"jan_diffuse",
			"uri":"jan_diffuse.png"
		}
	],
	"accessors":[
		{
			"bufferView":0,
			"componentType":5126,
			"count":5189,
			"max":[
				0.7294402718544006,
				1.837634801864624,
				0.0758194625377655
			],
			"min":[
				-0.7290909886360168,
				-2.1583716147688392e-08,
				-0.22404688596725464
			],
			"type":"VEC3"
		},
		{
			"bufferView":1,
			"componentType":5126,
			"count":5189,
			"type":"VEC3"
		},
		{
			"bufferView":2,
			"componentType":5126,
			"count":5189,
			"type":"VEC2"
		},
		{
			"bufferView":3,
			"componentType":5126,
			"count":5189,
			"type":"VEC4"
		},
		{
			"bufferView":4,
			"componentType":5123,
			"count":26352,
			"type":"SCALAR"
		}
	],
	"bufferViews":[
		{
			"buffer":0,
			"byteLength":62268,
			"byteOffset":0,
			"target":34962
		},
		{
			"buffer":0,
			"byteLength":62268,
			"byteOffset":62268,
			"target":34962
		},
		{
			"buffer":0,
			"byteLength":41512,
			"byteOffset":124536,
			"target":34962
		},
		{
			"buffer":0,
			"byteLength":83024,
			"byteOffset":166048,
			"target":34962
		},
		{
			"buffer":0,
			"byteLength":52704,
			"byteOffset":249072,
			"target":34963
		}
	],
	"samplers":[
		{
			"magFilter":9729,
			"minFilter":9987
		}
	],
	"buffers":[
		{
			"byteLength":301776,
			"uri":"../base_mesh/base_mesh.bin"
		}
	]
}
