{
	"asset":{
		"generator":"Khronos glTF Blender I/O v5.0.21",
		"version":"2.0"
	},
	"extensionsUsed":[
		"KHR_materials_specular",
		"KHR_materials_ior"
	],
	"scene":0,
	"scenes":[
		{
			"name":"Scene",
			"nodes":[
				0,
				1
			]
		}
	],
	"nodes":[
		{
			"mesh":0,
			"name":"Object_2"
		},
		{
			"mesh":1,
			"name":"Object_3"
		}
	],
	"materials":[
		{
			"doubleSided":true,
			"extensions":{
				"KHR_materials_specular":{
					"specularColorFactor":[
						0.016761956736445427,
						0.016761956736445427,
						0.016761956736445427
					],
					"specularColorTexture":{
						"index":0
					}
				},
				"KHR_materials_ior":{
					"ior":1000
				}
			},
			"name":"cctvcamera",
			"normalTexture":{
				"index":1
			},
			"pbrMetallicRoughness":{
				"baseColorTexture":{
					"index":2
				},
				"metallicFactor":0,
				"metallicRoughnessTexture":{
					"index":3
				}
			}
		}
	],
	"meshes":[
		{
			"name":"Object_0",
			"primitives":[
				{
					"attributes":{
						"POSITION":0,
						"NORMAL":1,
						"TEXCOORD_0":2,
						"TANGENT":3
					},
					"indices":4,
					"material":0
				}
			]
		},
		{
			"name":"Object_1",
			"primitives":[
				{
					"attributes":{
						"POSITION":5,
						"NORMAL":6,
						"TEXCOORD_0":7,
						"TANGENT":8
					},
					"indices":9,
					"material":0
				}
			]
		}
	],
	"textures":[
		{
			"sampler":0,
			"source":0
		},
		{
			"sampler":0,
			"source":1
		},
		{
			"sampler":0,
			"source":2
		},
		{
			"sampler":0,
			"source":3
		}
	],
	"images":[
		{
			"mimeType":"image/png",
			"name":"Image_1",
			"uri":"Image_1.png"
		},
		{
			"mimeType":"image/png",
			"name":"Image_2",
			"uri":"Image_2.png"
		},
		{
			"mimeType":"image/jpeg",
			"name":"Image_0",
			"uri":"Image_0.jpg"
		},
		{
			"mimeType":"image/png",
			"name":"Image_1",
			"uri":"Image_1-1.png"
		}
	],
	"accessors":[
		{
			"bufferView":0,
			"componentType":5126,
			"count":4,
			"max":[
				0.08237303793430328,
				0.46718817949295044,
				0.7152072191238403
			],
			"min":[
				-0.08237303793430328,
				0.29990309476852417,
				0.7152072191238403
			],
			"type":"VEC3"
		},
		{
			"bufferView":1,
			"componentType":5126,
			"count":4,
			"type":"VEC3"
		},
		{
			"bufferView":2,
			"componentType":5126,
			"count":4,
			"type":"VEC2"
		},
		{
			"bufferView":3,
			"componentType":5126,
			"count":4,
			"type":"VEC4"
		},
		{
			"bufferView":4,
			"componentType":5123,
			"count":6,
			"type":"SCALAR"
		},
		{
			"bufferView":5,
			"componentType":5126,
			"count":1806,
			"max":[
				0.1257735788822174,
				0.48652851581573486,
				0.8032697439193726
			],
			"min":[
				-0.12561263144016266,
				-0.12542730569839478,
				-1.9044319898853246e-08
			],
			"type":"VEC3"
		},
		{
			"bufferView":6,
			"componentType":5126,
			"count":1806,
			"type":"VEC3"
		},
		{
			"bufferView":7,
			"componentType":5126,
			"count":1806,
			"type":"VEC2"
		},
		{
			"bufferView":8,
			"componentType":5126,
			"count":1806,
			"type":"VEC4"
		},
		{
			"bufferView":9,
			"componentType":5123,
			"count":3999,
			"type":"SCALAR"
		}
	],
	"bufferViews":[
		{
			"buffer":0,
			"byteLength":48,
			"byteOffset":0,
			"target":34962
		},
		{
			"buffer":0,
			"byteLength":48,
			"byteOffset":48,
			"target":34962
		},
		{
			"buffer":0,
			"byteLength":32,
			"byteOffset":96,
			"target":34962
		},
		{
			"buffer":0,
			"byteLength":64,
			"byteOffset":128,
			"target":34962
		},
		{
			"buffer":0,
			"byteLength":12,
			"byteOffset":192,
			"target":34963
		},
		{
			"buffer":0,
			"byteLength":21672,
			"byteOffset":204,
			"target":34962
		},
		{
			"buffer":0,
			"byteLength":21672,
			"byteOffset":21876,
			"target":34962
		},
		{
			"buffer":0,
			"byteLength":14448,
			"byteOffset":43548,
			"target":34962
		},
		{
			"buffer":0,
			"byteLength":28896,
			"byteOffset":57996,
			"target":34962
		},
		{
			"buffer":0,
			"byteLength":7998,
			"byteOffset":86892,
			"target":34963
		}
	],
	"samplers":[
		{
			"magFilter":9729,
			"minFilter":9987
		}
	],
	"buffers":[
		{
			"byteLength":94892,
			"uri":"cctv.bin"
		}
	]
}
